<svg width="130" height="22" viewBox="0 0 130 22" fill="none" xmlns="http://www.w3.org/2000/svg">
<path d="M10.1068 1.77369C10.4763 1.04003 11.5237 1.04003 11.8932 1.77369L14.0398 6.03657C14.1852 6.32547 14.4615 6.52616 14.7812 6.57524L19.4987 7.29947C20.3107 7.42412 20.6343 8.42028 20.0507 8.99835L16.6598 12.3572C16.43 12.5848 16.3245 12.9095 16.3766 13.2288L17.1457 17.9393C17.278 18.75 16.4306 19.3656 15.7005 18.9892L11.4582 16.8022C11.1707 16.654 10.8293 16.654 10.5418 16.8022L6.29949 18.9892C5.56937 19.3656 4.72198 18.75 4.85433 17.9393L5.62336 13.2288C5.67547 12.9095 5.56996 12.5848 5.34016 12.3572L1.94926 8.99835C1.36567 8.42028 1.68934 7.42412 2.50126 7.29947L7.21883 6.57524C7.53854 6.52616 7.81477 6.32547 7.96025 6.03657L10.1068 1.77369Z" fill="#FD1C1D"/>
<path d="M37.1068 1.77369C37.4763 1.04003 38.5237 1.04003 38.8932 1.77369L41.0398 6.03657C41.1852 6.32547 41.4615 6.52616 41.7812 6.57524L46.4987 7.29947C47.3107 7.42412 47.6343 8.42028 47.0507 8.99835L43.6598 12.3572C43.43 12.5848 43.3245 12.9095 43.3766 13.2288L44.1457 17.9393C44.278 18.75 43.4306 19.3656 42.7005 18.9892L38.4582 16.8022C38.1707 16.654 37.8293 16.654 37.5418 16.8022L33.2995 18.9892C32.5694 19.3656 31.722 18.75 31.8543 17.9393L32.6234 13.2288C32.6755 12.9095 32.57 12.5848 32.3402 12.3572L28.9493 8.99835C28.3657 8.42028 28.6893 7.42412 29.5013 7.29947L34.2188 6.57524C34.5385 6.52616 34.8148 6.32547 34.9602 6.03657L37.1068 1.77369Z" fill="#FD1C1D"/>
<path d="M64.1068 1.77369C64.4763 1.04003 65.5237 1.04003 65.8932 1.77369L68.0398 6.03657C68.1852 6.32547 68.4615 6.52616 68.7812 6.57524L73.4987 7.29947C74.3107 7.42412 74.6343 8.42028 74.0507 8.99835L70.6598 12.3572C70.43 12.5848 70.3245 12.9095 70.3766 13.2288L71.1457 17.9393C71.278 18.75 70.4306 19.3656 69.7005 18.9892L65.4582 16.8022C65.1707 16.654 64.8293 16.654 64.5418 16.8022L60.2995 18.9892C59.5694 19.3656 58.722 18.75 58.8543 17.9393L59.6234 13.2288C59.6755 12.9095 59.57 12.5848 59.3402 12.3572L55.9493 8.99835C55.3657 8.42028 55.6893 7.42412 56.5013 7.29947L61.2188 6.57524C61.5385 6.52616 61.8148 6.32547 61.9602 6.03657L64.1068 1.77369Z" fill="#FD1C1D"/>
<path d="M91.1068 1.77369C91.4763 1.04003 92.5237 1.04003 92.8932 1.77369L95.0398 6.03657C95.1852 6.32547 95.4615 6.52616 95.7812 6.57524L100.499 7.29947C101.311 7.42412 101.634 8.42028 101.051 8.99835L97.6598 12.3572C97.43 12.5848 97.3245 12.9095 97.3766 13.2288L98.1457 17.9393C98.278 18.75 97.4306 19.3656 96.7005 18.9892L92.4582 16.8022C92.1707 16.654 91.8293 16.654 91.5418 16.8022L87.2995 18.9892C86.5694 19.3656 85.722 18.75 85.8543 17.9393L86.6234 13.2288C86.6755 12.9095 86.57 12.5848 86.3402 12.3572L82.9493 8.99835C82.3657 8.42028 82.6893 7.42412 83.5013 7.29947L88.2188 6.57524C88.5385 6.52616 88.8148 6.32547 88.9602 6.03657L91.1068 1.77369Z" fill="#FD1C1D"/>
<path d="M118.107 1.77369C118.476 1.04003 119.524 1.04003 119.893 1.77369L122.04 6.03657C122.185 6.32547 122.461 6.52616 122.781 6.57524L127.499 7.29947C128.311 7.42412 128.634 8.42028 128.051 8.99835L124.66 12.3572C124.43 12.5848 124.325 12.9095 124.377 13.2288L125.146 17.9393C125.278 18.75 124.431 19.3656 123.701 18.9892L119.458 16.8022C119.171 16.654 118.829 16.654 118.542 16.8022L114.299 18.9892C113.569 19.3656 112.722 18.75 112.854 17.9393L113.623 13.2288C113.675 12.9095 113.57 12.5848 113.34 12.3572L109.949 8.99835C109.366 8.42028 109.689 7.42412 110.501 7.29947L115.219 6.57524C115.539 6.52616 115.815 6.32547 115.96 6.03657L118.107 1.77369Z" fill="#FD1C1D"/>
</svg>
