<svg width="20" height="16" viewBox="0 0 20 16" fill="none" xmlns="http://www.w3.org/2000/svg">
<path d="M9.4743 13.3058C12.4874 10.0819 15.3962 7.8949 19.0501 4.79776C20.1437 3.87072 20.3126 2.24578 19.4547 1.09453C18.5429 -0.129021 16.8103 -0.373581 15.6376 0.599129C12.2907 3.37521 9.6868 6.0482 7.21679 8.9051C7.08718 9.055 7.02237 9.13 6.95511 9.1722C6.78453 9.2792 6.57138 9.2803 6.3997 9.1751C6.33199 9.1336 6.26707 9.0601 6.13722 8.9131L4.82103 7.4229C3.6201 6.0631 1.46608 6.2137 0.46339 7.7274C-0.23829 8.7867 -0.13431 10.1905 0.71567 11.1334L2.7796 13.4229C4.32334 15.1353 5.09521 15.9916 6.02185 15.9999C6.94849 16.0083 7.79043 15.1075 9.4743 13.3058Z" fill="#FD1C1D"/>
</svg>
