<svg width="29" height="25" viewBox="0 0 29 25" fill="none" xmlns="http://www.w3.org/2000/svg">
<path d="M27.0259 9.45531L16.6791 22.5279C16.4138 22.8635 16.081 23.1328 15.7048 23.3163C15.3286 23.4999 14.9183 23.5932 14.5036 23.5894C14.7955 23.5894 15.0873 23.2402 15.2995 22.5279L19.0801 9.45531C19.4391 8.14116 19.4391 6.74711 19.0801 5.43296L17.9791 2.27654C17.7801 1.71788 17.5148 1.39665 17.2362 1.39665H21.8923C22.607 1.42907 23.2841 1.74313 23.7892 2.27654L26.8004 5.43296C27.3049 5.95467 27.6074 6.65513 27.6491 7.3984C27.6907 8.14167 27.4686 8.87473 27.0259 9.45531Z" fill="#FD1C1D"/>
<path d="M14.5036 25C13.8938 24.9976 13.2918 24.8552 12.7396 24.5826C12.1875 24.31 11.6985 23.9139 11.3067 23.4218L0.973194 10.3492C0.301473 9.51346 -0.0446111 8.44086 0.00461425 7.34728C0.0538396 6.25371 0.494719 5.22038 1.2385 4.45531L4.23642 1.28492C4.62066 0.878087 5.07743 0.555156 5.58051 0.334656C6.08359 0.114156 6.62308 0.000428459 7.16801 0H21.8392C22.3842 0.000428459 22.9237 0.114156 23.4267 0.334656C23.9298 0.555156 24.3866 0.878087 24.7708 1.28492L27.7688 4.45531C28.5106 5.2222 28.9491 6.2565 28.9958 7.35004C29.0426 8.44358 28.6942 9.51518 28.0208 10.3492L17.6873 23.4218C17.2969 23.9121 16.8101 24.3071 16.2603 24.5797C15.7106 24.8522 15.1112 24.9956 14.5036 25ZM7.16801 2.7933C6.77048 2.7941 6.38925 2.95967 6.1068 3.25419L3.09561 6.42458C2.82813 6.70343 2.67009 7.07802 2.65288 7.47393C2.63568 7.86983 2.76058 8.25806 3.00276 8.56145L13.3496 21.662C13.4951 21.8324 13.6731 21.9687 13.8719 22.062C14.0707 22.1553 14.2859 22.2035 14.5036 22.2035C14.7213 22.2035 14.9365 22.1553 15.1354 22.062C15.3342 21.9687 15.5121 21.8324 15.6577 21.662L26.0045 8.58939C26.2467 8.28599 26.3716 7.89776 26.3544 7.50186C26.3372 7.10596 26.1791 6.73136 25.9116 6.45251L22.9004 3.25419C22.618 2.95967 22.2368 2.7941 21.8392 2.7933H7.16801Z" fill="#FD1C1D"/>
<path d="M14.5036 24.986C13.9598 24.986 12.9781 24.7207 12.4475 22.9469L8.6537 9.86034C8.23448 8.25659 8.2621 6.55974 8.73329 4.97207L9.8343 1.80168C10.3914 0.23743 11.32 0 11.8506 0H17.1566C17.6607 0 18.5893 0.23743 19.1464 1.78771L20.274 4.90224C20.7448 6.49475 20.7724 8.19594 20.3535 9.80447L16.573 22.8771C16.0291 24.7207 15.0475 24.986 14.5036 24.986ZM12.3149 2.7933L11.2271 5.90782C10.955 6.93572 10.955 8.02239 11.2271 9.05028L14.5036 20.4888L17.8066 9.09218C18.0792 8.05961 18.0792 6.96833 17.8066 5.93575L16.7189 2.8352L12.3149 2.7933Z" fill="#FD1C1D"/>
<path d="M1.2385 6.29888H27.7687V9.09218H1.2385V6.29888Z" fill="#FD1C1D"/>
</svg>
