<svg width="22" height="29" viewBox="0 0 22 29" fill="none" xmlns="http://www.w3.org/2000/svg">
<path d="M11.6652 0C12.1265 0.0653153 12.5878 0.104504 13.0491 0.182883C15.1615 0.566677 17.1147 1.58088 18.6613 3.09706C20.2079 4.61325 21.2784 6.5632 21.7372 8.7C22.2258 11.1658 22.0305 13.7217 21.1733 16.0806C20.2957 18.5389 18.9938 20.8173 17.3291 22.8081C15.5271 25.1105 13.4279 27.1538 11.0885 28.8824L10.9348 29L10.781 28.8955C7.26305 26.2837 4.32453 22.9454 2.15703 19.0982C1.15936 17.3123 0.490552 15.3555 0.183635 13.3243C-0.122577 11.6338 -0.0450393 9.8943 0.410305 8.23908C0.865649 6.58386 1.68671 5.05689 2.81055 3.77523C4.51141 1.7805 6.86629 0.485003 9.43551 0.130631L10.4991 0H11.6652ZM10.9476 25.7473L11.2551 25.486C12.4061 24.4956 13.4853 23.4216 14.4843 22.2725C16.0542 20.5453 17.3511 18.5798 18.3286 16.4464C19.2405 14.5087 19.6213 12.3557 19.4306 10.2153C19.2464 8.2902 18.4132 6.48974 17.0728 5.12072C15.6879 3.69937 13.8596 2.81577 11.9036 2.62258C9.9476 2.42938 7.98685 2.93872 6.36009 4.06261C4.94571 4.99451 3.83956 6.3392 3.18583 7.92136C2.53211 9.50352 2.36114 11.2498 2.69522 12.9324C2.98052 14.7468 3.60243 16.4892 4.52766 18.0662C5.80499 20.3115 7.39321 22.3573 9.24329 24.1405C9.7943 24.6892 10.3709 25.2117 10.9476 25.7473Z" fill="#FD1C1D"/>
<path d="M6 11.4732C6.0053 10.3865 6.33237 9.32582 6.93994 8.42488C7.5475 7.52395 8.40833 6.82318 9.41378 6.411C10.4192 5.99883 11.5243 5.89374 12.5894 6.10897C13.6545 6.32421 14.632 6.85014 15.3985 7.62039C16.165 8.39063 16.6862 9.37068 16.8963 10.4368C17.1063 11.503 16.9958 12.6075 16.5788 13.6109C16.1617 14.6143 15.4568 15.4717 14.5529 16.0749C13.649 16.6781 12.5867 17 11.5 17C10.0389 16.9929 8.63997 16.4075 7.60928 15.3718C6.57859 14.3361 5.99998 12.9343 6 11.4732ZM11.5 8.6561C10.9359 8.65346 10.3836 8.81869 9.91364 9.13076C9.44363 9.44284 9.07706 9.88766 8.86056 10.4086C8.64405 10.9296 8.5874 11.5032 8.69781 12.0565C8.80822 12.6098 9.08069 13.1177 9.48057 13.5157C9.88045 13.9137 10.3897 14.1837 10.9435 14.2915C11.4973 14.3993 12.0706 14.3399 12.5905 14.1209C13.1105 13.902 13.5536 13.5333 13.8634 13.0618C14.1732 12.5903 14.3359 12.0373 14.3305 11.4732C14.3305 11.1021 14.2572 10.7347 14.1148 10.392C13.9724 10.0494 13.7637 9.73821 13.5007 9.47644C13.2377 9.21468 12.9255 9.00745 12.5822 8.86667C12.2389 8.72589 11.8711 8.65433 11.5 8.6561Z" fill="#FD1C1D"/>
</svg>
