<svg width="29" height="33" viewBox="0 0 29 33" fill="none" xmlns="http://www.w3.org/2000/svg">
<path d="M19.1626 12.2875C19.265 12.093 19.3282 11.8795 19.3485 11.6595C19.3687 11.4395 19.3457 11.2175 19.2806 11.0068C19.2155 10.7962 19.1098 10.601 18.9697 10.433C18.8296 10.2649 18.658 10.1274 18.465 10.0286C18.272 9.92974 18.0616 9.87163 17.8463 9.85767C17.6309 9.8437 17.4151 9.87418 17.2114 9.94729C17.0078 10.0204 16.8206 10.1347 16.661 10.2833C16.5013 10.4319 16.3724 10.6118 16.2819 10.8124L14.0585 15.3648L12.4168 13.6818C12.2671 13.5286 12.0895 13.4071 11.8939 13.3242C11.6984 13.2414 11.4888 13.1987 11.2772 13.1988C11.0656 13.1989 10.8561 13.2417 10.6606 13.3247C10.4651 13.4077 10.2875 13.5293 10.1379 13.6826C9.98833 13.8359 9.86969 14.0179 9.78878 14.2181C9.70787 14.4184 9.66626 14.633 9.66634 14.8497C9.66641 15.0665 9.70817 15.2811 9.78922 15.4813C9.87027 15.6815 9.98903 15.8633 10.1387 16.0165L13.3609 19.3166C13.5415 19.5012 13.7622 19.6394 14.0051 19.7196C14.248 19.7998 14.5059 19.8197 14.7578 19.7778C15.0097 19.736 15.2482 19.6334 15.4538 19.4786C15.6594 19.3238 15.8261 19.1212 15.9403 18.8876L19.1626 12.2875Z" fill="#FD1C1D"/>
<path fill-rule="evenodd" clip-rule="evenodd" d="M14.993 0.0791482C14.6724 -0.0263827 14.3276 -0.0263827 14.007 0.0791482L1.11811 4.32131C0.793376 4.42821 0.510146 4.6379 0.309213 4.92018C0.108279 5.20247 1.07843e-05 5.54278 3.55573e-08 5.89211V17.4586C-0.000149925 19.3929 0.474041 21.2963 1.37906 22.9941C2.28408 24.6918 3.59094 26.1296 5.17972 27.1755L13.6284 32.7377C13.8883 32.9089 14.1909 33 14.5 33C14.8091 33 15.1117 32.9089 15.3716 32.7377L23.8203 27.1755C25.4093 26.1295 26.7163 24.6914 27.6213 22.9933C28.5264 21.2953 29.0004 19.3916 29 17.457V5.89046C29 5.54113 28.8917 5.20082 28.6908 4.91853C28.4899 4.63625 28.2066 4.42656 27.8819 4.31966L14.993 0.0791482ZM14.5 6.59997C12.3635 6.59997 10.3146 7.46916 8.80386 9.01634C7.29315 10.5635 6.44444 12.6619 6.44444 14.85C6.44444 17.038 7.29315 19.1365 8.80386 20.6836C10.3146 22.2308 12.3635 23.1 14.5 23.1C16.6365 23.1 18.6854 22.2308 20.1961 20.6836C21.7069 19.1365 22.5556 17.038 22.5556 14.85C22.5556 12.6619 21.7069 10.5635 20.1961 9.01634C18.6854 7.46916 16.6365 6.59997 14.5 6.59997Z" fill="#FD1C1D"/>
</svg>
