<svg width="30" height="27" viewBox="0 0 30 27" fill="none" xmlns="http://www.w3.org/2000/svg">
<path d="M27.1155 8.7726H19.1865L20.922 4.42975C21.1701 3.81102 21.2314 3.13297 21.098 2.47972C20.9647 1.82648 20.6427 1.22681 20.172 0.755142C19.9072 0.490369 19.5881 0.286459 19.2367 0.157572C18.8854 0.0286857 18.5102 -0.0220885 18.1372 0.00877503C17.7643 0.0396386 17.4025 0.1514 17.077 0.3363C16.7516 0.521199 16.4702 0.774804 16.2525 1.0795L11.616 7.57427C10.924 8.54179 10.1544 9.45131 9.31499 10.2938L7.83 11.7805C7.76238 11.8481 7.70876 11.9284 7.67221 12.0167C7.63565 12.1051 7.61689 12.1999 7.617 12.2955V23.4695C7.61689 23.6632 7.69348 23.8489 7.83 23.9861L9.49349 25.659C9.91725 26.0854 10.4213 26.4235 10.9764 26.6537C11.5315 26.8839 12.1267 27.0016 12.7275 27H21.7665C22.4802 26.9994 23.1784 26.7919 23.7768 26.4026C24.3752 26.0132 24.8482 25.4587 25.1385 24.806L29.5725 14.8184C29.8562 14.1814 30.0019 13.4915 30 12.7941V11.6618C29.9992 10.8961 29.6951 10.1619 29.1543 9.62025C28.6136 9.07863 27.8804 8.7738 27.1155 8.7726ZM2.6205 10.8029C1.9255 10.8029 1.25897 11.0793 0.767526 11.5713C0.276087 12.0633 0 12.7305 0 13.4263V23.2908C1.03563e-08 23.9866 0.276087 24.6539 0.767526 25.1459C1.25897 25.6379 1.9255 25.9143 2.6205 25.9143C3.3155 25.9143 3.98203 25.6379 4.47347 25.1459C4.96491 24.6539 5.241 23.9866 5.241 23.2908V13.4263C5.241 12.7305 4.96491 12.0633 4.47347 11.5713C3.98203 11.0793 3.3155 10.8029 2.6205 10.8029Z" fill="#FD1C1D"/>
</svg>
