<svg width="201" height="27" viewBox="0 0 201 27" fill="none" xmlns="http://www.w3.org/2000/svg">
<path fill-rule="evenodd" clip-rule="evenodd" d="M27.0536 22.0765C27.8835 20.8059 27.3856 19.0589 25.8918 18.2647L12.9459 11.1177C12.614 10.9588 12.448 10.3236 12.614 10.0059L14.9376 6.19414C15.1036 5.8765 15.4355 5.71767 15.6015 5.71767H29.2113L32.6967 0H10.2903C9.2945 0 8.29866 0.476486 7.80074 1.42943C7.13685 2.70002 6.307 3.81177 5.64311 5.08236C4.81324 6.51177 5.31115 8.10002 6.80491 8.89414L19.7508 16.0412C20.0828 16.2 20.2487 16.8353 20.0828 17.153L17.9251 20.6471C17.7591 20.9647 17.4272 21.1236 17.0953 21.1236H3.48545L0 26.8412H22.4064C23.4022 26.8412 24.3981 26.3648 24.896 25.4118L27.0536 22.0765Z" fill="#E30613"/>
<path fill-rule="evenodd" clip-rule="evenodd" d="M75.3515 22.0765C76.1814 20.8059 75.6835 19.0589 74.1897 18.2647L61.2438 11.1177C60.9119 10.9588 60.7459 10.3236 60.9119 10.0059L63.2355 6.19414C63.4015 5.8765 63.7334 5.71767 63.8994 5.71767H77.5092L80.9946 0H58.5882C57.5924 0 56.5966 0.476486 56.0986 1.42943C55.4347 2.70002 54.6049 3.81177 53.941 5.08236C53.1111 6.51177 53.609 8.10002 55.1028 8.89414L68.0487 16.0412C68.3807 16.2 68.5466 16.8353 68.3807 17.153L66.223 20.6471C66.057 20.9647 65.7251 21.1236 65.3932 21.1236H54.6049L51.1194 26.8412H70.7043C71.7001 26.8412 72.696 26.3648 73.1939 25.4118L75.3515 22.0765Z" fill="#E30613"/>
<path fill-rule="evenodd" clip-rule="evenodd" d="M51.1193 10.0059L51.9492 8.57645C47.9658 8.57645 46.472 8.57645 44.4804 8.57645C44.9783 7.62351 45.6422 6.67056 49.6255 0.158785H39.6671L34.522 8.57645H27.7171L26.8872 10.0059H33.6921L29.0448 17.6294C28.215 19.0588 28.7129 20.647 30.0407 21.4412C33.1942 23.1882 36.1817 24.7765 39.3352 26.5235C39.8331 26.8412 40.331 26.8412 40.829 26.8412H49.2936L52.779 21.1235H38.3394C37.6755 21.1235 37.3435 20.4882 37.6754 19.8529C41.4928 13.5 42.9866 10.9588 43.8165 9.68821H51.1193V10.0059Z" fill="#E30613"/>
<path fill-rule="evenodd" clip-rule="evenodd" d="M144.729 12.3882H155.185V7.78233H158.836C158.836 11.7529 158.836 15.5647 158.836 19.5353H155.185V14.7706H144.729V19.5353H141.077V7.78233H144.729V12.3882ZM168.629 14.4529H174.604L171.616 9.21174L168.629 14.4529ZM175.766 16.6765H167.135L165.641 19.3765H161.492L168.629 7.6235H174.604L181.741 19.3765H177.425L175.766 16.6765ZM112.198 10.3235H102.737C102.405 10.3235 102.239 10.4823 101.908 10.6411C101.742 10.8 101.576 11.1176 101.576 11.4353V15.8823C101.576 16.2 101.742 16.3588 101.908 16.6765C102.074 16.8353 102.405 16.9941 102.737 16.9941H112.198C112.53 16.9941 112.696 16.8353 113.028 16.6765C113.194 16.5176 113.36 16.2 113.36 15.8823V11.4353C113.36 11.1176 113.194 10.9588 113.028 10.6411C112.862 10.4823 112.53 10.3235 112.198 10.3235ZM102.737 7.78233H112.198C114.687 7.78233 116.845 9.84702 116.845 12.2294V15.0882C116.845 17.4706 114.687 19.5353 112.198 19.5353H102.737C100.248 19.5353 98.0901 17.4706 98.0901 15.0882V12.2294C98.0901 9.84702 100.248 7.78233 102.737 7.78233ZM133.276 19.5353L124.978 13.6588L133.442 7.6235H138.422L129.625 13.6588L138.256 19.5353H133.276ZM123.65 7.78233H119.999V19.5353H123.65V7.78233ZM185.226 27H81.1609C80.8289 27 80.331 26.8412 79.9991 26.6824C78.8372 26.0471 78.5053 24.6176 79.1692 23.5059L92.447 1.42938C92.779 0.635261 93.6089 0.158785 94.6047 0.158785H198.67C199.002 0.158785 199.5 0.317604 199.832 0.476428C200.994 1.11172 201.326 2.54114 200.662 3.6529L187.384 25.7294C186.886 26.3647 186.222 27 185.226 27Z" fill="#3C3C3B"/>
</svg>
