<svg width="565" height="991" viewBox="0 0 565 991" fill="none" xmlns="http://www.w3.org/2000/svg">
<path fill-rule="evenodd" clip-rule="evenodd" d="M527.989 216.709L530.302 213.26C520.471 213.26 516.423 213.26 511.796 213.26C512.953 210.961 514.688 208.662 524.519 191.992H503.7H499.652L486.929 213.26H470.159L467.845 216.709H484.616L473.05 236.253C471.315 239.702 472.472 244.301 475.942 246.025C483.459 250.624 490.977 254.648 499.074 259.246C500.23 259.821 501.387 260.396 502.543 260.396H523.362L532.037 246.025H496.76C495.025 246.025 493.869 244.301 495.025 242.576C504.278 226.481 508.327 220.158 510.061 216.709H527.989ZM479.99 300.059L482.303 296.61C472.472 296.61 468.424 296.61 463.797 296.61C464.954 294.311 466.689 292.012 476.52 275.342H455.701H451.653L438.93 296.61H422.16L419.846 300.059H436.617L425.051 319.603C423.316 323.052 424.473 327.651 427.943 329.375C435.461 333.974 442.978 337.998 451.075 342.596C452.231 343.171 453.388 343.746 454.544 343.746H475.363L484.038 329.375H448.761C447.026 329.375 445.87 327.651 447.026 325.926C456.279 309.831 460.327 303.508 462.062 300.059H479.99ZM431.412 383.409L433.726 379.96C423.895 379.96 419.846 379.96 415.22 379.96C416.377 377.661 418.112 375.361 427.943 358.691H407.124H403.076L390.353 379.96H373.582L371.269 383.409H388.04L376.474 402.953C374.739 406.402 375.895 411.001 379.365 412.725C386.883 417.324 394.401 421.347 402.497 425.946C403.654 426.521 404.811 427.096 405.967 427.096H426.786L435.46 412.725H400.184C398.449 412.725 397.292 411 398.449 409.276C407.702 393.181 411.75 386.858 413.485 383.409H431.412ZM383.413 466.184L385.727 462.735C375.896 462.735 371.847 462.735 367.221 462.735C368.378 460.436 370.113 458.136 379.944 441.466H359.125H354.498L341.776 462.735H325.005L322.692 466.184H339.463L327.897 485.728C326.162 489.177 327.318 493.775 330.788 495.5C338.306 500.099 345.824 504.122 353.92 508.721C355.077 509.296 356.233 509.871 357.39 509.871H378.209L386.883 495.5H351.607C349.872 495.5 348.715 493.775 349.872 492.051C359.125 475.956 363.173 469.633 364.908 466.184H383.413ZM334.836 549.534L337.149 546.085C327.318 546.085 323.27 546.085 318.644 546.085C319.8 543.785 321.535 541.486 331.366 524.816H310.548H306.499L293.777 546.085H277.006L274.693 549.534H291.463L279.897 569.078C278.163 572.527 279.319 577.125 282.789 578.85C290.307 583.448 297.825 587.472 305.921 592.071C307.078 592.646 308.234 593.22 309.391 593.22H330.21L338.884 578.85H303.608C301.873 578.85 300.717 577.125 301.873 575.401C311.126 559.306 315.174 552.982 316.909 549.534H334.836ZM286.837 632.883L289.15 629.434C279.319 629.434 275.271 629.434 270.645 629.434C271.801 627.135 273.536 624.836 283.367 608.166H261.97H257.922L245.199 629.434H228.429L226.115 632.883H242.886L231.32 652.427C229.585 655.876 230.742 660.475 234.212 662.199C241.73 666.798 249.248 670.822 257.344 675.421C258.5 675.995 259.657 676.57 260.814 676.57H281.633L290.307 662.199H255.031C253.296 662.199 252.139 660.475 253.296 658.75C262.549 642.655 266.596 636.332 268.331 632.883H286.837ZM238.26 715.658L240.573 712.209C230.742 712.209 226.694 712.209 222.067 712.209C223.224 709.91 224.959 707.611 234.79 690.941H213.971H209.923L197.2 712.209H180.43L178.117 715.658H194.887L183.321 735.202C181.587 738.651 182.743 743.25 186.213 744.974C193.731 749.573 201.249 753.597 209.345 758.195C210.502 758.77 211.658 759.345 212.815 759.345H233.633L242.308 744.974H207.032C205.297 744.974 204.14 743.25 205.297 741.526C214.55 725.43 218.598 719.107 220.332 715.658H238.26ZM190.261 799.008L192.574 795.559C182.743 795.559 178.695 795.559 174.068 795.559C175.225 793.26 176.96 790.96 186.791 774.291H165.972H161.924L149.202 795.559H132.431L130.118 799.008H146.888L135.322 818.552C133.587 822.001 134.744 826.6 138.214 828.324C145.732 832.923 153.25 836.947 161.346 841.545C162.502 842.12 163.659 842.695 164.816 842.695H185.634L194.309 828.324H159.033C157.298 828.324 156.141 826.6 157.298 824.875C166.551 808.78 170.599 802.457 172.334 799.008H190.261ZM141.684 882.358L143.997 878.909C134.166 878.909 130.118 878.909 125.491 878.909C126.648 876.61 128.383 874.31 138.214 857.64H117.395H113.347L100.624 878.909H83.8536L81.5403 882.358H98.3111L86.7451 901.902C85.0102 905.351 86.1668 909.949 89.6366 911.674C97.1545 916.273 104.672 920.296 112.769 924.895C113.925 925.47 115.082 926.045 116.238 926.045H137.057L145.732 911.674H110.455C108.72 911.674 107.564 909.95 108.72 908.225C117.973 892.13 122.021 885.807 123.756 882.358H141.684ZM508.905 526.54C510.64 523.091 509.483 518.493 506.013 516.769L474.207 498.374C473.05 497.799 473.05 496.65 473.628 495.5L479.411 485.728C479.99 485.153 480.568 484.578 481.146 484.578H514.688L523.362 470.208H467.845C465.532 470.208 462.641 471.357 461.484 473.657C459.749 476.531 458.014 479.98 455.701 483.429C453.966 486.877 455.123 491.476 458.592 493.201L490.399 511.595C491.556 512.17 491.556 513.32 490.977 514.469L485.773 523.092C485.194 523.667 484.616 524.241 484.038 524.241H450.496H353.92C351.607 524.241 348.715 525.391 347.559 527.69C345.824 530.564 344.089 534.013 341.776 537.462C340.041 540.911 341.197 545.51 344.667 547.234L376.474 565.629C377.63 566.204 377.631 567.353 377.052 568.503L371.847 577.125C371.269 577.7 370.691 578.275 370.113 578.275H343.51L334.836 592.645H383.413C386.305 592.645 388.618 591.496 389.775 589.197L394.979 580.574C396.714 577.125 395.558 572.527 392.088 570.802L360.281 552.408C359.125 551.833 359.125 550.683 359.703 549.534L365.486 539.762C366.065 539.187 366.643 538.612 367.221 538.612H441.822H497.339C500.23 538.612 502.543 537.462 503.7 535.163L508.905 526.54ZM460.327 609.89C462.062 606.441 460.906 601.843 457.436 600.118L425.629 581.724C424.473 581.149 424.473 579.999 425.051 578.85L430.834 569.078C431.412 568.503 431.991 567.928 432.569 567.928H466.11L474.785 553.557H419.268C416.955 553.557 414.063 554.707 412.907 557.006C411.172 559.88 409.437 563.329 407.124 566.778C405.389 570.227 406.545 574.826 410.015 576.55L441.822 594.945C442.978 595.52 442.978 596.669 442.4 597.819L437.195 606.441C436.617 607.016 436.039 607.591 435.46 607.591H401.919H305.343C303.03 607.591 300.138 608.741 298.982 611.04C297.247 613.914 295.512 617.363 293.199 620.812C291.464 624.261 292.62 628.86 296.09 630.584L327.897 648.979C329.053 649.553 329.053 650.703 328.475 651.853L323.27 660.475C322.692 661.05 322.113 661.625 321.535 661.625H294.933L286.259 675.995H334.836C337.727 675.995 340.041 674.846 341.198 672.546L346.402 663.924C348.137 660.475 346.98 655.876 343.51 654.152L311.704 635.757C310.547 635.183 310.547 634.033 311.126 632.883L316.909 623.111C317.487 622.536 318.065 621.962 318.644 621.962H393.245H448.761C451.653 621.962 453.966 620.812 455.123 618.513L460.327 609.89ZM519.892 578.275L522.206 574.826C512.375 574.826 508.326 574.826 503.7 574.826C504.857 572.527 506.591 570.227 516.423 553.557H495.604H491.556L478.833 574.826H462.062L459.749 578.275H476.52L464.954 597.819C463.219 601.268 464.375 605.867 467.845 607.591C475.363 612.19 482.881 616.214 490.977 620.812C492.134 621.387 493.291 621.962 494.447 621.962H515.266L523.94 607.591H488.664C486.929 607.591 485.773 605.866 486.929 604.142C496.182 588.047 500.23 581.724 501.965 578.275H519.892ZM412.328 692.665C414.063 689.216 412.907 684.618 409.437 682.893L377.63 664.499C376.474 663.924 376.474 662.774 377.052 661.625L382.835 651.853C383.414 651.278 383.992 650.703 384.57 650.703H418.111L426.786 636.332H371.269C368.956 636.332 366.064 637.482 364.908 639.781C363.173 642.655 361.438 646.104 359.125 649.553C357.39 653.002 358.546 657.601 362.016 659.325L393.823 677.72C394.979 678.295 394.98 679.444 394.401 680.594L389.196 689.216C388.618 689.791 388.04 690.366 387.462 690.366H353.92H257.344C255.031 690.366 252.139 691.516 250.982 693.815C249.247 696.689 247.513 700.138 245.199 703.587C243.464 707.036 244.621 711.634 248.091 713.359L279.897 731.753C281.054 732.328 281.054 733.478 280.476 734.628L275.271 743.25C274.693 743.825 274.115 744.4 273.536 744.4H246.935L238.26 758.77H286.837C289.729 758.77 292.042 757.621 293.199 755.321L298.403 746.699C300.138 743.25 298.981 738.651 295.512 736.927L263.705 718.533C262.548 717.958 262.549 716.808 263.127 715.658L268.91 705.886C269.488 705.311 270.066 704.737 270.645 704.737H345.246H400.762C403.654 704.737 405.967 703.587 407.124 701.288L412.328 692.665ZM471.315 661.625L473.628 658.176C463.797 658.176 459.749 658.176 455.123 658.176C456.279 655.876 458.014 653.577 467.845 636.907H447.026H442.978L430.256 658.176H413.485L411.172 661.625H427.943L416.377 681.169C414.642 684.618 415.798 689.216 419.268 690.941C426.786 695.539 434.304 699.563 442.4 704.162C443.557 704.737 444.713 705.311 445.87 705.311H466.689L475.363 690.941H440.087C438.352 690.941 437.195 689.216 438.352 687.492C447.605 671.397 451.653 665.074 453.388 661.625H471.315ZM363.751 776.015C365.486 772.566 364.329 767.967 360.86 766.243L329.053 747.849C327.896 747.274 327.897 746.124 328.475 744.974L334.258 735.202C334.836 734.628 335.414 734.053 335.993 734.053H369.534L378.209 719.682H322.692C320.379 719.682 317.487 720.832 316.331 723.131C314.596 726.005 312.861 729.454 310.548 732.903C308.813 736.352 309.969 740.951 313.439 742.675L345.246 761.07C346.402 761.644 346.402 762.794 345.824 763.944L340.619 772.566C340.041 773.141 339.462 773.716 338.884 773.716H305.343H208.766C206.453 773.716 203.562 774.865 202.405 777.165C200.67 780.039 198.936 783.488 196.622 786.937C194.887 790.386 196.044 794.984 199.514 796.709L231.32 815.103C232.477 815.678 232.477 816.828 231.898 817.977L226.694 826.6C226.116 827.175 225.537 827.749 224.959 827.749H198.357L189.683 842.12H238.26C241.152 842.12 243.465 840.97 244.621 838.671L249.826 830.049C251.561 826.6 250.404 822.001 246.935 820.277L215.128 801.882C213.971 801.307 213.971 800.158 214.549 799.008L220.332 789.236C220.911 788.661 221.489 788.086 222.067 788.086H296.668H352.185C355.077 788.086 357.39 786.937 358.547 784.638L363.751 776.015ZM423.316 744.974L425.629 741.526C415.798 741.526 411.75 741.526 407.124 741.526C408.28 739.226 410.015 736.927 419.846 720.257H399.028H394.979L382.257 741.526H365.486L363.173 744.974H379.944L368.378 764.519C366.643 767.968 367.799 772.566 371.269 774.291C378.787 778.889 386.305 782.913 394.401 787.512C395.558 788.086 396.714 788.661 397.871 788.661H418.69L427.364 774.291H392.088C390.353 774.291 389.196 772.566 390.353 770.842C399.606 754.746 403.654 748.423 405.389 744.974H423.316ZM315.174 859.365C316.909 855.916 315.752 851.317 312.282 849.593L280.476 831.198C279.319 830.623 279.319 829.474 279.897 828.324L285.68 818.552C286.259 817.977 286.837 817.402 287.416 817.402H320.957L329.632 803.032H274.114C271.801 803.032 268.91 804.182 267.753 806.481C266.018 809.355 264.283 812.804 261.97 816.253C260.235 819.702 261.392 824.3 264.862 826.025L296.668 844.419C297.825 844.994 297.825 846.144 297.246 847.294L292.042 855.916C291.464 856.491 290.885 857.065 290.307 857.065H256.765H160.189C157.876 857.065 154.984 858.215 153.828 860.514C152.093 863.389 150.358 866.838 148.045 870.287C146.31 873.735 147.467 878.334 150.936 880.058L182.743 898.453C183.9 899.028 183.9 900.177 183.321 901.327L178.117 909.949C177.538 910.524 176.96 911.099 176.382 911.099H149.78L141.105 925.47H189.683C192.574 925.47 194.887 924.32 196.044 922.021L201.249 913.398C202.984 909.95 201.827 905.351 198.357 903.626L166.551 885.232C165.394 884.657 165.394 883.508 165.972 882.358L171.755 872.586C172.334 872.011 172.912 871.436 173.49 871.436H248.091H303.608C306.499 871.436 308.813 870.287 309.969 867.987L315.174 859.365ZM374.739 827.749L377.052 824.3C367.221 824.3 363.173 824.3 358.547 824.3C359.703 822.001 361.438 819.702 371.269 803.032H350.45H346.402L333.68 824.3H316.909L314.595 827.749H331.366L319.8 847.294C318.065 850.742 319.222 855.341 322.692 857.065C330.21 861.664 337.728 865.688 345.824 870.287C346.98 870.861 348.137 871.436 349.294 871.436H370.113L378.787 857.065H343.51C341.776 857.065 340.619 855.341 341.776 853.617C351.028 837.521 355.077 831.198 356.812 827.749H374.739ZM326.74 911.099L329.053 907.65C319.222 907.65 315.174 907.65 310.548 907.65C311.704 905.351 313.439 903.052 323.27 886.382H302.451H298.403L285.68 907.65H268.91L266.597 911.099H283.367L271.801 930.643C270.066 934.092 271.223 938.691 274.693 940.415C282.211 945.014 289.729 949.038 297.825 953.636C298.982 954.211 300.138 954.786 301.295 954.786H322.114L330.788 940.415H295.512C293.777 940.415 292.62 938.691 293.777 936.966C303.03 920.871 307.078 914.548 308.812 911.099H326.74ZM548.807 804.756C550.542 801.307 549.386 796.709 545.916 794.984L514.109 776.59C512.953 776.015 512.953 774.865 513.531 773.716L519.314 763.944C519.892 763.369 520.471 762.794 521.049 762.794H554.59L563.265 748.423H507.748C505.435 748.423 502.544 749.573 501.387 751.872C499.652 754.746 497.917 758.195 495.604 761.644C493.869 765.093 495.026 769.692 498.495 771.416L530.302 789.811C531.459 790.386 531.458 791.535 530.88 792.685L525.675 801.307C525.097 801.882 524.519 802.457 523.94 802.457H490.399H393.823C391.51 802.457 388.618 803.607 387.462 805.906C385.727 808.78 383.992 812.229 381.679 815.678C379.944 819.127 381.1 823.726 384.57 825.45L416.377 843.844C417.533 844.419 417.533 845.569 416.955 846.719L411.75 855.341C411.172 855.916 410.593 856.491 410.015 856.491H383.413L374.739 870.861H423.316C426.208 870.861 428.521 869.712 429.677 867.412L434.882 858.79C436.617 855.341 435.461 850.742 431.991 849.018L400.184 830.624C399.028 830.049 399.027 828.899 399.606 827.749L405.389 817.977C405.967 817.403 406.545 816.828 407.124 816.828H481.725H537.241C540.133 816.828 542.446 815.678 543.603 813.379L548.807 804.756ZM500.23 888.106C501.965 884.657 500.809 880.059 497.339 878.334L465.532 859.94C464.376 859.365 464.375 858.215 464.954 857.065L470.737 847.294C471.315 846.719 471.894 846.144 472.472 846.144H506.013L514.688 831.773H459.171C456.857 831.773 453.966 832.923 452.81 835.222C451.075 838.096 449.34 841.545 447.026 844.994C445.292 848.443 446.448 853.042 449.918 854.766L481.725 873.161C482.881 873.735 482.881 874.885 482.303 876.035L477.098 884.657C476.52 885.232 475.942 885.807 475.363 885.807H441.822H345.246C342.932 885.807 340.041 886.956 338.884 889.256C337.149 892.13 335.414 895.579 333.101 899.028C331.366 902.477 332.523 907.075 335.993 908.8L367.799 927.194C368.956 927.769 368.956 928.919 368.378 930.068L363.173 938.691C362.595 939.266 362.016 939.841 361.438 939.841H334.836L326.161 954.211H374.739C377.63 954.211 379.943 953.061 381.1 950.762L386.305 942.14C388.04 938.691 386.883 934.092 383.413 932.368L351.607 913.973C350.45 913.398 350.45 912.249 351.029 911.099L356.812 901.327C357.39 900.752 357.968 900.177 358.547 900.177H433.147H488.664C491.556 900.177 493.869 899.028 495.025 896.729L500.23 888.106ZM559.795 857.065L562.109 853.617C552.277 853.617 548.229 853.617 543.603 853.617C544.759 851.317 546.494 849.018 556.326 832.348H535.506H531.458L518.736 853.617H501.965L499.652 857.065H516.423L504.857 876.61C503.122 880.059 504.278 884.657 507.748 886.382C515.266 890.98 522.784 895.004 530.88 899.603C532.037 900.177 533.193 900.752 534.35 900.752H555.169L563.843 886.382H528.567C526.832 886.382 525.675 884.657 526.832 882.933C536.085 866.837 540.133 860.514 541.868 857.065H559.795ZM511.218 940.415L513.531 936.966C503.7 936.966 499.652 936.966 495.025 936.966C496.182 934.667 497.917 932.368 507.748 915.698H486.929H482.881L470.159 936.966H453.388L451.075 940.415H467.845L456.279 959.959C454.544 963.408 455.701 968.007 459.171 969.731C466.689 974.33 474.206 978.354 482.303 982.952C483.459 983.527 484.616 984.102 485.773 984.102H506.591L515.266 969.731H479.99C478.255 969.731 477.098 968.007 478.255 966.282C487.508 950.187 491.556 943.864 493.291 940.415H511.218ZM60.1431 990.425H38.1677C37.5894 988.701 37.5896 986.401 38.7462 984.677L50.3122 965.133H33.5414L35.8547 961.684H52.6252L65.3479 940.415H69.3961H90.2148C80.3837 957.085 79.227 959.959 77.4921 961.684C82.1185 961.684 86.1667 961.684 95.9978 961.684L93.6848 965.133H75.1791C72.8659 968.582 69.3959 974.905 60.1431 990.425ZM153.828 990.425H131.853L135.322 984.102C135.9 982.952 135.322 981.803 134.744 981.228L102.937 962.834C99.4677 961.109 98.3111 956.51 100.046 953.061C101.781 949.612 103.516 946.738 105.829 943.289C106.986 940.99 109.299 939.841 112.19 939.841H208.766H242.308C242.886 939.841 244.043 939.266 244.043 938.691L249.248 930.068C249.826 928.919 249.248 927.769 248.669 927.194L216.863 908.8C213.393 907.075 212.236 902.477 213.971 899.028C215.706 895.579 217.441 892.705 219.754 889.256C220.911 886.956 223.224 885.807 226.115 885.807H281.633L272.958 900.177H239.416C238.838 900.177 237.682 900.752 237.682 901.327L231.898 911.099C231.32 912.249 231.899 913.398 232.477 913.973L264.284 932.368C267.753 934.092 268.91 938.691 267.175 942.14L261.97 950.762C260.814 953.061 258.501 954.211 255.609 954.211H200.092H125.491C124.913 954.211 123.756 954.786 123.756 955.361L117.973 965.133C117.395 966.282 117.973 967.432 118.552 968.007L150.358 986.401C152.093 987.551 153.25 989.275 153.828 990.425ZM185.634 990.425H166.551C164.816 988.126 164.238 984.677 165.972 981.803C167.707 978.354 169.442 975.48 171.755 972.031C172.912 969.731 175.225 968.582 178.117 968.582H233.633L224.959 982.952H191.417C190.839 982.952 189.683 983.527 189.683 984.102L185.634 990.425ZM261.97 990.425H237.103L249.826 969.156H253.874H274.693C264.862 985.826 263.127 988.701 261.97 990.425ZM305.343 990.425H286.259C284.524 988.126 283.945 984.677 285.68 981.803C287.415 978.354 289.15 975.48 291.463 972.031C292.62 969.731 294.933 968.582 297.825 968.582H394.401H427.943C428.521 968.582 429.677 968.007 429.677 967.432L434.882 958.81C435.461 957.66 434.882 956.51 434.304 955.936L402.497 937.541C399.027 935.817 397.871 931.218 399.606 927.769C401.341 924.32 403.076 921.446 405.389 917.997C406.545 915.698 408.859 914.548 411.75 914.548H467.267L458.592 928.919H425.051C424.473 928.919 423.316 929.494 423.316 930.068L417.533 939.841C416.955 940.99 417.533 942.14 418.111 942.715L449.918 961.109C453.388 962.833 454.544 967.432 452.81 970.881L447.605 979.503C446.448 981.803 444.135 982.952 441.243 982.952H385.727H311.126C310.547 982.952 309.391 983.527 309.391 984.102L305.343 990.425ZM493.291 123.013L501.965 108.642H531.458L522.784 123.013H493.291ZM462.062 177.046L470.737 162.676H492.712C493.291 162.676 494.447 162.101 494.447 161.526L499.652 152.904C500.23 151.754 499.652 150.604 499.074 150.029L483.459 141.407L485.194 138.533L514.688 155.778C518.158 157.502 519.314 162.101 517.579 165.55L512.374 174.172C511.218 176.472 508.905 177.621 506.013 177.621L462.062 177.046ZM444.713 206.363L453.388 191.992H482.881L474.207 206.363H444.713ZM413.485 260.396L422.16 246.025H444.135C444.713 246.025 445.87 245.451 445.87 244.876L451.075 236.253C451.653 235.104 451.074 233.954 450.496 233.379L434.882 224.757L436.617 221.883L466.11 239.127C469.58 240.852 470.737 245.451 469.002 248.9L463.797 257.522C462.641 259.821 460.327 260.971 457.436 260.971L413.485 260.396ZM396.714 289.712L405.389 275.342H434.882L426.208 289.712H396.714ZM364.908 343.746L373.582 329.375H395.558C396.136 329.375 397.293 328.8 397.293 328.225L402.497 319.603C403.076 318.453 402.497 317.304 401.919 316.729L386.305 308.107L388.04 305.232L417.533 322.477C421.003 324.202 422.16 328.8 420.425 332.249L415.22 340.872C414.063 343.171 411.75 344.321 408.859 344.321L364.908 343.746ZM348.137 372.487L356.812 358.117H386.305L377.63 372.487H348.137ZM316.909 426.521L325.583 412.15H347.559C348.137 412.15 349.294 411.575 349.294 411.001L354.498 402.378C355.077 401.229 354.499 400.079 353.92 399.504L338.306 390.882L340.041 388.008L369.534 405.252C373.004 406.977 374.16 411.575 372.426 415.024L367.221 423.647C366.064 425.946 363.751 427.096 360.86 427.096L316.909 426.521ZM300.138 455.837L308.812 441.466H338.306L329.632 455.837H300.138ZM268.331 509.871L277.006 495.5H298.982C299.56 495.5 300.716 494.925 300.716 494.35L305.921 485.728C306.499 484.578 305.921 483.429 305.343 482.854L289.729 474.231L291.463 471.357L320.957 488.602C324.427 490.327 325.583 494.925 323.848 498.374L318.644 506.996C317.487 509.296 315.174 510.445 312.282 510.445L268.331 509.871ZM251.561 539.187L260.235 524.816H289.729L281.054 539.187H251.561ZM220.332 593.22L229.007 578.85H250.982C251.561 578.85 252.718 578.275 252.718 577.7L257.922 569.078C258.5 567.928 257.922 566.778 257.344 566.204L241.73 557.581L243.465 554.707L272.958 571.952C276.428 573.676 277.584 578.275 275.85 581.724L270.645 590.346C269.488 592.646 267.175 593.795 264.284 593.795L220.332 593.22ZM203.562 621.962L212.236 607.591H241.73L233.055 621.962H203.562ZM171.755 675.995L180.43 661.625H202.405C202.984 661.625 204.14 661.05 204.14 660.475L209.345 651.853C209.923 650.703 209.345 649.553 208.766 648.979L193.152 640.356L194.887 637.482L224.381 654.727C227.85 656.451 229.007 661.05 227.272 664.499L222.067 673.121C220.911 675.42 218.598 676.57 215.706 676.57L171.755 675.995ZM154.985 705.311L163.659 690.941H193.152L184.478 705.311H154.985ZM123.756 759.345L132.431 744.974H154.406C154.985 744.974 156.141 744.4 156.141 743.825L161.346 735.202C161.924 734.053 161.346 732.903 160.768 732.328L145.153 723.706L146.888 720.832L176.382 738.077C179.852 739.801 181.008 744.4 179.273 747.849L174.068 756.471C172.912 758.77 170.599 759.92 167.707 759.92L123.756 759.345ZM106.986 788.661L115.66 774.291H145.153L136.479 788.661H106.986ZM75.1791 842.695L83.8536 828.324H105.829C106.407 828.324 107.564 827.749 107.564 827.175L112.769 818.552C113.347 817.403 112.768 816.253 112.19 815.678L96.5763 807.056L98.3111 804.182L127.804 821.426C131.274 823.151 132.431 827.749 130.696 831.198L125.491 839.821C124.335 842.12 122.021 843.27 119.13 843.27L75.1791 842.695ZM58.4082 871.436L67.0828 857.065H96.5763L87.9018 871.436H58.4082ZM27.1802 926.045L35.8547 911.674H57.8301C58.4084 911.674 59.5649 911.099 59.5649 910.524L64.7698 901.902C65.3481 900.752 64.7696 899.603 64.1913 899.028L48.5771 890.405L50.3122 887.531L79.8055 904.776C83.2753 906.501 84.4319 911.099 82.697 914.548L77.4921 923.17C76.3355 925.47 74.0224 926.619 71.1309 926.619L27.1802 926.045ZM10.4093 954.786L19.0839 940.415H48.5771L39.9025 954.786H10.4093ZM565 915.123V929.494H543.603C543.024 929.494 541.868 930.068 541.868 930.643L536.085 940.415C535.507 941.565 536.085 942.714 536.663 943.289L564.422 959.385V981.803C563.265 982.952 561.53 983.527 559.217 983.527H510.64L519.314 969.156H545.916C546.494 969.156 547.651 968.582 547.651 968.007L552.855 959.385C553.434 958.235 552.856 957.085 552.277 956.51L520.471 938.116C517.001 936.391 515.844 931.793 517.579 928.344C519.314 924.895 521.049 922.021 523.362 918.572C524.519 916.273 526.832 915.123 529.723 915.123H565ZM565 891.555V900.752H559.795L565 891.555ZM565 770.267V808.205L556.326 803.032C552.856 801.307 551.699 796.709 553.434 793.26L565 773.716H548.229L550.542 770.267H565ZM565 719.682V734.053H530.302H455.701C455.123 734.053 453.966 734.628 453.966 735.202L448.183 744.974C447.605 746.124 448.183 747.274 448.761 747.849L480.568 766.243C484.038 767.967 485.194 772.566 483.459 776.015L478.255 784.638C477.098 786.937 474.785 788.086 471.893 788.086H423.316L431.991 773.716H458.592C459.171 773.716 460.327 773.141 460.327 772.566L465.532 763.944C466.111 762.794 465.532 761.644 464.954 761.07L433.147 742.675C429.677 740.951 428.521 736.352 430.256 732.903C431.991 729.454 433.725 726.58 436.039 723.131C437.195 720.832 439.509 719.682 442.4 719.682H538.976H565ZM565 665.648V685.767L562.109 690.941C561.53 692.09 562.108 693.24 562.687 693.815L565 694.965V698.988L546.494 688.641C543.024 686.917 541.868 682.318 543.603 678.869C545.338 675.42 547.073 672.546 549.386 669.097C550.542 666.798 552.855 665.648 555.747 665.648H565ZM565 636.332V650.703H503.7C503.122 650.703 501.965 651.278 501.965 651.853L496.182 661.625C495.604 662.774 496.182 663.924 496.76 664.499L528.567 682.893C532.037 684.618 533.193 689.216 531.458 692.665L526.254 701.288C525.097 703.587 522.784 704.737 519.892 704.737H471.315L479.99 690.366H506.591C507.17 690.366 508.326 689.791 508.326 689.216L513.531 680.594C514.109 679.444 513.531 678.295 512.953 677.72L481.146 659.325C477.677 657.601 476.52 653.002 478.255 649.553C479.99 646.104 481.725 643.23 484.038 639.781C485.194 637.482 487.508 636.332 490.399 636.332H565ZM565 553.557V567.928H552.277C551.699 567.928 550.542 568.503 550.542 569.078L544.759 578.85C544.181 579.999 544.759 581.149 545.338 581.724L565 593.22V622.536H519.892L528.567 608.166H555.169C555.747 608.166 556.904 607.591 556.904 607.016L562.109 598.394C562.687 597.244 562.108 596.094 561.53 595.52L529.723 577.125C526.254 575.401 525.097 570.802 526.832 567.353C528.567 563.904 530.302 561.03 532.615 557.581C533.772 555.282 536.085 554.132 538.976 554.132H565V553.557ZM565 492.051V495.5H549.964C548.229 498.949 544.181 505.272 534.928 521.367C534.35 522.517 534.928 524.816 536.663 524.816H565V537.462L563.843 539.762H543.024C541.868 539.762 540.711 539.187 539.555 538.612C532.037 534.013 524.519 529.99 516.423 525.391C512.953 523.666 511.796 519.068 513.531 515.619L525.097 496.075H508.326L510.64 492.626H527.41L540.133 471.357H544.181H565C555.169 488.027 554.012 490.901 552.277 492.626L565 492.051ZM565 426.521V442.041H564.422C560.952 440.317 559.795 435.718 561.53 432.269L565 426.521ZM565 408.701V412.15H556.904L559.217 408.701H565ZM565 386.858V397.779L562.687 401.228H529.145C528.567 401.228 527.41 401.803 527.41 402.378L521.627 412.15C521.049 413.3 521.627 414.449 522.206 415.024L554.012 433.419C557.482 435.143 558.639 439.742 556.904 443.191L551.699 451.813C550.542 454.112 548.229 455.262 545.338 455.262H489.821H415.22C414.642 455.262 413.485 455.837 413.485 456.412L407.702 466.184C407.124 467.333 407.702 468.483 408.28 469.058L440.087 487.452C443.557 489.177 444.713 493.776 442.978 497.224L437.774 505.847C436.617 508.146 434.304 509.296 431.412 509.296H382.835L391.51 494.925H418.111C418.69 494.925 419.846 494.35 419.846 493.776L425.051 485.153C425.629 484.003 425.051 482.854 424.473 482.279L392.666 463.884C389.196 462.16 388.04 457.561 389.775 454.113C391.509 450.664 393.244 447.789 395.558 444.34C396.714 442.041 399.028 440.891 401.919 440.891H498.495H532.037C532.615 440.891 533.772 440.317 533.772 439.742L538.976 431.12C539.555 429.97 538.976 428.82 538.398 428.245L506.591 409.851C503.122 408.126 501.965 403.528 503.7 400.079C505.435 396.63 507.17 393.756 509.483 390.307C510.64 388.008 512.953 386.858 515.844 386.858H565ZM565 358.117V372.487H538.398H463.797C463.219 372.487 462.062 373.062 462.062 373.637L456.279 383.409C455.701 384.559 456.279 385.708 456.858 386.283L488.664 404.677C492.134 406.402 493.291 411 491.556 414.449L486.351 423.072C485.194 425.371 482.881 426.521 479.99 426.521H431.412L440.087 412.15H466.689C467.267 412.15 468.424 411.575 468.424 411.001L473.628 402.378C474.206 401.229 473.628 400.079 473.05 399.504L441.243 381.11C437.774 379.385 436.617 374.786 438.352 371.337C440.087 367.888 441.822 365.014 444.135 361.566C445.292 359.266 447.605 358.117 450.496 358.117H547.072H565ZM565 304.083V332.824L555.169 327.076C551.699 325.351 550.542 320.753 552.277 317.304C554.012 313.855 555.747 310.981 558.06 307.532C559.217 305.233 561.53 304.083 564.422 304.083H565ZM565 274.767V289.137H512.374C511.796 289.137 510.64 289.712 510.64 290.287L504.857 300.059C504.278 301.209 504.856 302.358 505.435 302.933L537.241 321.328C540.711 323.052 541.868 327.651 540.133 331.1L534.928 339.722C533.772 342.021 531.458 343.171 528.567 343.171H479.99L488.664 328.8H515.266C515.844 328.8 517.001 328.226 517.001 327.651L522.206 319.028C522.784 317.879 522.206 316.729 521.627 316.154L489.821 297.76C486.351 296.035 485.194 291.437 486.929 287.988C488.664 284.539 490.399 281.665 492.712 278.216C493.869 275.916 496.182 274.767 499.074 274.767H565ZM565 244.876V260.396H528.567L537.241 246.025H563.843C563.843 246.025 564.422 245.451 565 244.876ZM565 191.992V206.363H560.373C559.795 206.363 558.638 206.937 558.638 207.512L552.855 217.284C552.277 218.434 552.856 219.583 553.434 220.158L564.422 226.481V230.505L537.241 214.985C533.771 213.26 532.615 208.662 534.35 205.213C536.085 201.764 537.82 198.89 540.133 195.441C541.289 193.142 543.603 191.992 546.494 191.992H565ZM565 108.642V122.438L560.373 130.485H565V133.934H558.06C556.325 137.383 552.277 143.706 543.024 159.802C542.446 160.951 543.025 163.251 544.759 163.251H564.422V177.621H550.542C549.386 177.621 548.229 177.046 547.072 176.471C539.555 171.873 532.037 167.849 523.94 163.251C520.471 161.526 519.314 156.927 521.049 153.478L532.615 133.934H515.844L518.157 130.485H534.928L547.651 109.217H551.699H565V108.642ZM565 73.5777V82.7749L560.373 90.8224C559.217 93.1217 556.904 94.2714 554.012 94.2714H510.061L518.736 79.9008H540.711C541.29 79.9008 542.446 79.3259 542.446 78.7511L547.651 70.1287C548.229 68.979 547.651 67.8294 547.072 67.2545L531.458 58.6321L533.193 55.758L562.687 73.0028C563.265 72.428 564.422 73.0028 565 73.5777ZM565 25.2923V39.663H541.868L550.542 25.2923H565ZM565 0V10.9217H558.638L565 0ZM0 972.605L1.73483 969.731L31.228 986.976C32.9629 988.126 34.1198 989.276 34.6981 991H12.7227L16.1924 984.677C16.7707 983.527 16.1925 982.378 15.6142 981.803L0 972.605Z" fill="white" fill-opacity="0.08"/>
</svg>
