<svg width="1399" height="539" viewBox="0 0 1399 539" fill="none" xmlns="http://www.w3.org/2000/svg">
<path fill-rule="evenodd" clip-rule="evenodd" d="M336.67 154.284L339.703 148.234C323.779 148.234 317.713 148.234 310.131 148.234C312.406 144.452 314.68 140.671 330.604 113.444H297.24H290.416L269.942 148.234H242.645L239.612 154.284H266.91L248.711 186.048C245.678 191.342 247.195 198.905 253.261 201.93C265.393 208.737 278.283 216.3 290.416 223.107C291.932 223.863 294.207 224.619 296.482 224.619H330.604L344.253 201.174H286.624C284.35 201.174 282.075 198.149 283.592 195.88C298.757 169.41 304.823 158.822 307.856 153.528H336.67V154.284ZM258.568 289.661L261.602 283.61C245.678 283.61 239.612 283.61 232.029 283.61C234.304 279.829 236.579 276.047 252.502 248.821H219.139H212.314L191.841 283.61H164.544L161.51 289.661H188.808L170.61 321.425C167.577 326.719 169.093 334.282 175.159 337.307C187.291 344.114 200.182 351.677 212.314 358.483C213.831 359.24 216.106 359.996 218.38 359.996H252.502L266.151 336.551H208.523C206.248 336.551 203.973 333.526 205.49 331.257C220.655 304.786 226.721 294.198 229.754 288.904L258.568 289.661ZM179.709 425.794L182.742 419.743C166.818 419.743 160.752 419.743 153.17 419.743C155.445 415.962 157.719 412.18 173.643 384.954H140.279H133.455L112.982 419.743H85.6839L82.6511 425.794H109.949L91.75 457.558C88.7169 462.852 90.2337 470.415 96.2998 473.44C108.432 480.247 121.322 487.81 133.455 494.616C134.971 495.373 137.246 496.129 139.521 496.129H173.643L187.292 472.684H129.663C127.388 472.684 125.114 469.659 126.63 467.39C141.796 440.919 147.862 430.331 150.895 425.037H179.709V425.794ZM101.608 561.17L104.641 555.12C88.717 555.12 82.6511 555.12 75.0685 555.12C77.3433 551.338 79.6177 547.557 95.5413 520.33H62.1779H55.3533L34.88 555.12H7.58266L4.54941 561.17H31.8472L13.6487 592.935C10.6156 598.229 12.1324 605.792 18.1986 608.817C30.3308 615.623 43.221 623.186 55.3533 629.993C56.8698 630.749 59.1445 631.506 61.4193 631.506H95.5413L109.19 608.06H51.562C49.2872 608.06 47.0127 605.035 48.5292 602.766C63.6945 576.296 69.7602 565.708 72.7933 560.414L101.608 561.17ZM618.745 116.469C621.778 111.175 620.261 103.612 614.195 100.587L562.633 71.0917C561.117 70.3354 560.358 68.0665 561.117 66.5539L570.216 50.6717C570.974 49.9154 571.732 49.1591 573.249 49.1591H627.844L641.492 25.7141H551.259C546.71 25.7141 542.918 27.9829 540.643 31.7643C537.61 37.0584 534.577 41.5961 531.544 46.8902C528.511 52.1843 530.028 59.7472 536.094 62.7724L587.656 92.2678C589.172 93.0241 589.931 95.2931 589.172 96.8057L580.831 111.175C580.073 112.688 579.315 113.444 577.798 113.444H523.203H366.242C361.693 113.444 357.902 115.713 355.627 119.494C352.594 124.789 349.561 129.326 346.527 134.62C343.494 139.914 345.011 147.477 351.077 150.503L402.639 179.998C404.155 180.754 404.914 183.023 404.155 184.536L395.815 198.905C395.056 200.418 394.298 201.174 392.781 201.174H349.56L335.912 224.619H414.771C419.321 224.619 423.112 222.351 425.387 218.569L433.728 204.199C436.761 198.905 435.244 191.342 429.178 188.317L377.616 158.822C376.1 158.065 375.341 155.797 376.1 154.284L385.199 138.402C385.957 137.646 386.716 136.889 388.232 136.889H509.555H599.788C604.337 136.889 608.129 134.62 610.404 130.839L618.745 116.469ZM715.044 65.7976L718.078 59.7473C702.154 59.7473 696.088 59.7473 688.505 59.7473C690.78 55.9658 693.055 52.1843 708.978 24.9577H675.614H668.79L648.317 59.7473H621.02L617.986 65.7976H645.284L627.086 97.562C624.053 102.856 625.569 110.419 631.635 113.444C643.767 120.251 656.658 127.814 668.79 134.62C670.307 135.377 672.582 136.133 674.856 136.133H708.978L722.627 112.688H664.999C662.724 112.688 660.449 109.663 661.966 107.394C677.131 80.9234 683.197 70.3354 686.23 65.0413L715.044 65.7976ZM540.643 252.602C543.676 247.308 542.16 239.745 536.094 236.72L484.532 207.225C483.015 206.468 482.257 204.199 483.015 202.687L492.115 186.805C492.873 186.048 493.631 185.292 495.147 185.292H549.743L563.391 161.847H473.158C468.608 161.847 464.817 164.116 462.542 167.897C459.509 173.191 456.476 177.729 453.443 183.023C450.41 188.317 451.926 195.88 457.993 198.905L509.555 228.401C511.071 229.157 511.829 231.426 511.071 232.939L502.73 247.308C501.972 248.821 501.214 249.577 499.697 249.577H445.102H288.141C283.591 249.577 279.8 251.846 277.525 255.627C274.492 260.921 271.459 265.459 268.426 270.753C265.393 276.047 266.909 283.61 272.976 286.635L324.538 316.131C326.054 316.887 326.812 319.156 326.054 320.669L317.713 335.038C316.955 336.551 316.197 337.307 314.68 337.307H271.459L257.81 360.752H336.67C341.22 360.752 345.011 358.483 347.286 354.702L355.627 340.332C358.66 335.038 357.143 327.475 351.077 324.45L299.515 294.955C297.998 294.198 297.24 291.93 297.998 290.417L307.098 274.535C307.856 273.778 308.614 273.022 310.131 273.022H431.453H521.687C526.236 273.022 530.028 270.753 532.303 266.972L540.643 252.602ZM636.943 201.93L639.976 195.88C624.053 195.88 617.986 195.88 610.404 195.88C612.679 192.099 614.953 188.317 630.877 161.091H597.513H590.689L570.216 195.88H542.918L539.885 201.93H567.183L548.984 233.695C545.951 238.989 547.468 246.552 553.534 249.577C565.666 256.384 578.557 263.947 590.689 270.753C592.206 271.51 594.48 272.266 596.755 272.266H630.877L644.526 248.821H586.898C584.623 248.821 582.348 245.796 583.865 243.527C599.03 217.056 605.096 206.468 608.129 201.174H636.943V201.93ZM461.784 387.979C464.817 382.685 463.3 375.122 457.234 372.097L405.672 342.601C404.156 341.845 403.397 339.576 404.155 338.063L413.255 322.181C414.013 321.425 414.771 320.669 416.288 320.669H470.883L484.532 297.224H394.298C389.749 297.224 385.957 299.492 383.682 303.274C380.649 308.568 377.616 313.106 374.583 318.4C371.55 323.694 373.067 331.257 379.133 334.282L430.695 363.777C432.211 364.534 432.97 366.803 432.211 368.315L423.871 382.685C423.112 384.197 422.354 384.954 420.837 384.954H366.242H209.281C204.732 384.954 200.94 387.223 198.666 391.004C195.633 396.298 192.599 400.836 189.566 406.13C186.533 411.424 188.05 418.987 194.116 422.012L245.678 451.508C247.195 452.264 247.953 454.533 247.194 456.045L238.854 470.415C238.095 471.927 237.337 472.684 235.82 472.684H192.6L178.951 496.129H257.81C262.36 496.129 266.151 493.86 268.426 490.079L276.767 475.709C279.8 470.415 278.284 462.852 272.218 459.827L220.655 430.331C219.139 429.575 218.381 427.306 219.139 425.794L228.238 409.911C228.996 409.155 229.754 408.399 231.271 408.399H352.594H442.827C447.377 408.399 451.168 406.13 453.443 402.348L461.784 387.979ZM558.842 337.307L561.875 331.257C545.951 331.257 539.885 331.257 532.303 331.257C534.577 327.475 536.852 323.694 552.776 296.467H519.412H512.587L492.115 331.257H464.817L461.784 337.307H489.081L470.883 369.072C467.85 374.366 469.366 381.929 475.433 384.954C487.565 391.76 500.455 399.323 512.587 406.13C514.104 406.886 516.379 407.643 518.654 407.643H552.776L566.424 384.197H508.796C506.521 384.197 504.247 381.172 505.763 378.903C520.929 352.433 526.995 341.845 530.028 336.551L558.842 337.307ZM383.682 523.355C386.715 518.061 385.199 510.499 379.133 507.473L327.571 477.978C326.054 477.221 325.296 474.953 326.054 473.44L335.153 457.558C335.912 456.802 336.67 456.045 338.186 456.045H392.781L406.43 432.6H316.197C311.647 432.6 307.856 434.869 306.339 438.651C303.306 443.945 300.273 448.482 297.24 453.776C294.207 459.07 295.723 466.633 301.79 469.659L353.352 499.154C354.868 499.91 355.626 502.179 354.868 503.692L346.527 518.061C345.769 519.574 345.011 520.33 343.494 520.33H288.899H131.938C127.389 520.33 123.597 522.599 121.322 526.381C118.289 531.675 115.256 536.213 112.223 541.507C109.19 546.801 110.707 554.363 116.773 557.389L168.335 586.884C169.852 587.64 170.61 589.909 169.852 591.422L161.51 605.791C160.752 607.304 159.994 608.06 158.478 608.06H115.256L101.608 631.506H180.467C185.017 631.506 188.808 629.237 191.083 625.455L199.424 611.086C202.457 605.792 200.94 598.229 194.874 595.203L143.312 565.708C141.796 564.952 141.037 562.683 141.796 561.17L150.895 545.288C151.653 544.532 152.411 543.775 153.928 543.775H275.25H365.484C370.034 543.775 373.825 541.507 376.1 537.725L383.682 523.355ZM479.982 472.684L483.015 466.633C467.092 466.633 461.025 466.633 453.443 466.633C455.718 462.852 457.992 459.07 473.916 431.844H439.794H432.969L412.497 466.633H385.199L382.166 472.684H409.463L391.265 504.448C388.232 509.742 389.749 517.305 395.815 520.33C407.947 527.137 420.837 534.7 432.969 541.507C434.486 542.263 436.761 543.019 439.036 543.019H473.158L486.807 519.574H429.178C426.903 519.574 424.629 516.549 426.145 514.28C441.311 487.81 447.377 477.222 450.41 471.928H479.982V472.684ZM401.881 608.06L404.914 602.01C388.99 602.01 382.924 602.01 375.341 602.01C377.616 598.229 379.891 594.447 395.815 567.221H362.451H355.627L335.153 602.01H307.856L304.823 608.06H332.12L313.922 639.825C310.889 645.119 312.405 652.682 318.472 655.707C330.604 662.514 343.495 670.077 355.627 676.883C357.143 677.64 359.418 678.396 361.693 678.396H395.815L409.463 654.951H351.835C349.561 654.951 347.286 651.926 348.802 649.657C363.967 623.186 370.034 612.598 373.067 607.304H401.881V608.06ZM919.018 164.116C922.051 158.822 920.534 151.259 914.468 148.234L862.906 118.738C861.39 117.982 860.631 115.713 861.39 114.2L870.489 98.3182C871.247 97.5619 872.005 96.8057 873.522 96.8057H928.117L941.766 73.3605H851.532C846.983 73.3605 843.192 75.6294 840.917 79.4109C837.884 84.7049 834.851 89.2427 831.817 94.5368C828.784 99.8308 830.301 107.394 836.367 110.419L887.929 139.914C889.445 140.671 890.204 142.94 889.445 144.452L881.105 158.822C880.346 160.334 879.588 161.091 878.071 161.091H823.476H667.274C662.724 161.091 658.933 163.36 657.416 167.141C654.383 172.435 651.35 176.973 648.317 182.267C645.284 187.561 646.8 195.124 652.867 198.149L704.429 227.645C705.945 228.401 706.703 230.67 705.945 232.182L697.604 246.552C696.846 248.064 696.088 248.821 694.571 248.821H651.35L637.701 272.266H716.561C721.111 272.266 724.902 269.997 727.177 266.215L735.518 251.846C738.551 246.552 737.034 238.989 730.968 235.964L679.406 206.468C677.889 205.712 677.131 203.443 677.89 201.93L686.988 186.048C687.747 185.292 688.505 184.536 690.022 184.536H811.344H901.578C906.128 184.536 909.919 182.267 912.193 178.485L919.018 164.116ZM1015.32 113.444L1018.35 107.394C1002.43 107.394 996.361 107.394 988.779 107.394C991.053 103.612 993.328 99.8309 1009.25 72.6043H975.888H969.063L948.59 107.394H921.293L918.259 113.444H945.557L927.359 145.208C924.326 150.502 925.842 158.065 931.909 161.091C944.041 167.897 956.931 175.46 969.063 182.267C970.58 183.023 972.855 183.779 975.129 183.779H1009.25L1022.9 160.334H965.272C962.997 160.334 960.723 157.309 962.239 155.04C977.405 128.57 983.47 117.982 986.503 112.688H1015.32V113.444ZM840.917 299.492C843.95 294.198 842.433 286.635 836.367 283.61L784.805 254.115C783.288 253.359 782.53 251.09 783.288 249.577L792.388 233.695C793.146 232.939 793.904 232.182 795.421 232.182H850.016L863.665 208.737H773.431C768.881 208.737 765.09 211.006 762.815 214.788C759.782 220.082 756.749 224.619 753.716 229.913C750.683 235.208 752.199 242.77 758.266 245.796L809.828 275.291C811.344 276.047 812.102 278.316 811.344 279.829L803.003 294.198C802.245 295.711 801.487 296.467 799.97 296.467H745.375H588.414C583.864 296.467 580.073 298.736 577.798 302.518C574.765 307.812 571.732 312.349 568.699 317.643C565.666 322.938 567.182 330.501 573.249 333.526L624.811 363.021C626.328 363.777 627.085 366.046 626.327 367.559L617.986 381.928C617.228 383.441 616.47 384.197 614.953 384.197H571.732L558.083 407.643H636.943C641.493 407.643 645.284 405.374 647.559 401.592L655.9 387.223C658.933 381.928 657.416 374.366 651.35 371.34L599.788 341.845C598.271 341.089 597.513 338.82 598.272 337.307L607.371 321.425C608.129 320.669 608.887 319.912 610.404 319.912H731.726H821.96C826.51 319.912 830.301 317.643 832.576 313.862L840.917 299.492ZM937.216 248.821L940.249 242.77C924.326 242.77 918.259 242.77 910.677 242.77C912.952 238.989 915.227 235.207 931.15 207.981H897.787H890.962L870.489 242.77H843.191L840.158 248.821H867.456L849.257 280.585C846.224 285.879 847.741 293.442 853.807 296.467C865.939 303.274 878.83 310.837 890.962 317.643C892.479 318.4 894.753 319.156 897.028 319.156H931.15L944.799 295.711H887.171C884.896 295.711 882.621 292.686 884.138 290.417C899.303 263.947 905.369 253.359 908.402 248.064H937.216V248.821ZM762.057 434.869C765.09 429.575 763.574 422.012 757.508 418.987L705.945 389.491C704.429 388.735 703.671 386.466 704.429 384.954L713.528 369.072C714.286 368.315 715.044 367.559 716.561 367.559H771.156L784.805 344.114H694.571C690.021 344.114 686.23 346.383 683.956 350.164C680.923 355.458 677.889 359.996 674.856 365.29C671.823 370.584 673.34 378.147 679.406 381.172L730.968 410.668C732.485 411.424 733.243 413.693 732.484 415.205L724.144 429.575C723.385 431.088 722.627 431.844 721.11 431.844H666.516H509.555C505.005 431.844 501.213 434.113 498.939 437.894C495.906 443.188 492.872 447.726 489.839 453.02C486.806 458.314 488.323 465.877 494.389 468.902L545.951 498.398C547.468 499.154 548.226 501.423 547.468 502.936L539.127 517.305C538.368 518.818 537.61 519.574 536.094 519.574H492.873L479.224 543.019H558.083C562.633 543.019 566.424 540.75 568.699 536.969L577.04 522.599C580.073 517.305 578.557 509.742 572.491 506.717L520.929 477.222C519.412 476.465 518.654 474.196 519.412 472.684L528.511 456.802C529.269 456.045 530.027 455.289 531.544 455.289H652.867H743.1C747.65 455.289 751.441 453.02 753.716 449.239L762.057 434.869ZM858.357 384.197L861.39 378.147C845.466 378.147 839.4 378.147 831.817 378.147C834.092 374.366 836.367 370.584 852.291 343.358H818.927H812.102L791.629 378.147H764.332L761.299 384.197H788.596L770.398 415.962C767.365 421.256 768.881 428.819 774.948 431.844C787.08 438.651 799.97 446.214 812.102 453.02C813.619 453.776 815.894 454.533 818.169 454.533H852.291L865.939 431.088H808.311C806.036 431.088 803.762 428.062 805.278 425.794C820.443 399.323 826.51 388.735 829.543 383.441H858.357V384.197ZM683.956 571.002C686.989 565.708 685.472 558.145 679.406 555.12L627.844 525.624C626.327 524.868 625.569 522.599 626.327 521.087L635.426 505.204C636.185 504.448 636.943 503.692 638.46 503.692H693.055L706.704 480.247H616.47C611.92 480.247 608.129 482.516 605.854 486.297C602.821 491.591 599.788 496.129 596.755 501.423C593.722 506.717 595.238 514.28 601.305 517.305L652.867 546.801C654.383 547.557 655.141 549.826 654.383 551.338L646.042 565.708C645.284 567.221 644.526 567.977 643.009 567.977H588.414H431.453C426.904 567.977 423.112 570.246 420.837 574.027C417.804 579.321 414.771 583.859 411.738 589.153C408.705 594.447 410.222 602.01 416.288 605.035L467.85 634.531C469.366 635.287 470.125 637.556 469.367 639.069L461.025 653.438C460.267 654.951 459.509 655.707 457.993 655.707H414.771L401.123 679.152H479.982C484.532 679.152 488.323 676.883 490.598 673.102L498.939 658.732C501.972 653.438 500.455 645.875 494.389 642.85L442.827 613.354C441.311 612.598 440.552 610.329 441.311 608.817L450.41 592.935C451.168 592.178 451.926 591.422 453.443 591.422H574.765H664.999C669.549 591.422 673.34 589.153 675.614 585.372L683.956 571.002ZM780.255 520.33L783.288 514.28C767.365 514.28 761.299 514.28 753.716 514.28C755.991 510.498 758.265 506.717 774.189 479.49H740.826H734.001L713.528 514.28H686.23L683.197 520.33H710.495L692.296 552.095C689.263 557.389 690.78 564.952 696.846 567.977C708.979 574.783 721.869 582.346 734.001 589.153C735.518 589.909 737.792 590.666 740.067 590.666H774.189L787.838 567.221H730.21C727.935 567.221 725.66 564.195 727.177 561.926C742.342 535.456 748.408 524.868 751.441 519.574L780.255 520.33ZM701.396 655.707L704.429 649.657C688.505 649.657 682.439 649.657 674.856 649.657C677.131 645.875 679.406 642.094 695.33 614.867H661.966H655.142L634.668 649.657H607.371L604.338 655.707H631.635L613.437 687.471C610.404 692.765 611.92 700.328 617.986 703.354C630.119 710.16 643.009 717.723 655.142 724.53C656.658 725.286 658.933 726.042 661.208 726.042H695.33L708.978 702.597H651.35C649.076 702.597 646.801 699.572 648.317 697.303C663.482 670.833 669.549 660.245 672.582 654.951H701.396V655.707ZM1219.29 211.006C1222.32 205.712 1220.81 198.149 1214.74 195.124L1163.18 165.628C1161.66 164.872 1160.9 162.603 1161.66 161.091L1170.76 145.208C1171.52 144.452 1172.28 143.696 1173.8 143.696H1228.39L1242.04 120.251H1152.56C1148.01 120.251 1144.22 122.52 1141.95 126.301C1138.91 131.595 1135.88 136.133 1132.85 141.427C1129.82 146.721 1131.33 154.284 1137.4 157.309L1188.96 186.805C1190.48 187.561 1191.24 189.83 1190.48 191.342L1182.14 205.712C1181.38 207.225 1180.62 207.981 1179.1 207.981H1124.51H967.547C962.997 207.981 959.206 210.25 956.931 214.031C953.898 219.325 950.865 223.863 947.832 229.157C944.799 234.451 946.315 242.014 952.381 245.039L1003.94 274.535C1005.46 275.291 1006.22 277.56 1005.46 279.073L997.119 293.442C996.361 294.955 995.603 295.711 994.086 295.711H950.865L937.216 319.156H1016.08C1020.63 319.156 1024.42 316.887 1026.69 313.106L1035.03 298.736C1038.07 293.442 1036.55 285.879 1030.48 282.854L978.921 253.358C977.404 252.602 976.646 250.333 977.405 248.821L986.503 232.939C987.262 232.182 988.02 231.426 989.537 231.426H1110.86H1201.09C1205.64 231.426 1209.43 229.157 1211.71 225.376L1219.29 211.006ZM1315.59 160.334L1318.62 154.284C1302.7 154.284 1296.63 154.284 1289.05 154.284C1291.33 150.503 1293.6 146.721 1309.52 119.494H1276.16H1269.34L1248.86 154.284H1221.57L1218.53 160.334H1245.83L1227.63 192.099C1224.6 197.393 1226.12 204.956 1232.18 207.981C1244.31 214.788 1257.2 222.35 1269.34 229.157C1270.85 229.913 1273.13 230.67 1275.4 230.67H1309.52L1323.17 207.225H1265.55C1263.27 207.225 1261 204.199 1262.51 201.93C1277.68 175.46 1283.74 164.872 1286.78 159.578H1315.59V160.334ZM1141.19 347.139C1144.22 341.845 1142.71 334.282 1136.64 331.257L1085.08 301.761C1083.56 301.005 1082.8 298.736 1083.56 297.224L1092.66 281.341C1093.42 280.585 1094.18 279.829 1095.69 279.829H1150.29L1163.94 256.384H1073.7C1069.15 256.384 1065.36 258.653 1063.85 262.434C1060.81 267.728 1057.78 272.266 1054.75 277.56C1051.71 282.854 1053.23 290.417 1059.3 293.442L1110.86 322.938C1112.38 323.694 1113.13 325.963 1112.38 327.475L1104.03 341.845C1103.28 343.357 1102.52 344.114 1101 344.114H1046.41H889.445C884.896 344.114 881.105 346.383 878.83 350.164C875.797 355.458 872.764 359.996 869.731 365.29C866.698 370.584 868.214 378.147 874.28 381.172L925.842 410.668C927.359 411.424 928.117 413.693 927.359 415.205L919.018 429.575C918.26 431.088 917.501 431.844 915.985 431.844H872.763L859.115 455.289H937.975C942.524 455.289 946.315 453.02 948.59 449.239L956.931 434.869C959.964 429.575 958.448 422.012 952.381 418.987L900.819 389.491C899.303 388.735 898.545 386.466 899.303 384.954L908.402 369.072C909.16 368.315 909.919 367.559 911.435 367.559H1032.76H1122.99C1127.54 367.559 1131.33 365.29 1133.61 361.509L1141.19 347.139ZM1237.49 296.467L1240.52 290.417C1224.6 290.417 1218.53 290.417 1210.95 290.417C1213.23 286.635 1215.5 282.854 1231.42 255.627H1198.06H1190.48L1170 290.417H1142.71L1139.67 296.467H1166.97L1148.77 328.232C1145.74 333.526 1147.26 341.089 1153.32 344.114C1165.45 350.92 1178.34 358.483 1190.48 365.29C1191.99 366.046 1194.27 366.803 1196.54 366.803H1230.66L1244.31 343.358H1186.69C1184.41 343.358 1182.14 340.332 1183.65 338.063C1198.82 311.593 1204.88 301.005 1207.92 295.711L1237.49 296.467ZM1062.33 482.516C1065.36 477.222 1063.85 469.659 1057.78 466.633L1006.22 437.138C1004.7 436.382 1003.94 434.113 1004.7 432.6L1013.8 416.718C1014.56 415.962 1015.32 415.205 1016.83 415.205H1071.43L1085.08 391.76H994.845C990.295 391.76 986.503 394.029 984.229 397.811C981.196 403.105 978.162 407.643 975.129 412.937C972.096 418.231 973.613 425.794 979.679 428.819L1031.24 458.314C1032.76 459.071 1033.52 461.339 1032.76 462.852L1024.42 477.222C1023.66 478.734 1022.9 479.49 1021.38 479.49H966.789H809.828C805.278 479.49 801.487 481.759 799.212 485.541C796.179 490.835 793.146 495.373 790.113 500.667C787.08 505.961 788.596 513.524 794.662 516.549L846.224 546.044C847.741 546.801 848.499 549.069 847.741 550.582L839.4 564.952C838.642 566.464 837.883 567.221 836.367 567.221H793.146L779.497 590.666H858.357C862.906 590.666 866.697 588.397 868.972 584.615L877.313 570.246C880.346 564.952 878.83 557.389 872.763 554.364L821.202 524.868C819.685 524.112 818.927 521.843 819.685 520.33L828.784 504.448C829.542 503.692 830.301 502.936 831.817 502.936H953.14H1043.37C1047.92 502.936 1051.71 500.667 1053.99 496.885L1062.33 482.516ZM1158.63 431.844L1161.66 425.794C1145.74 425.794 1139.67 425.794 1132.09 425.794C1134.37 422.012 1136.64 418.231 1152.56 391.004H1119.2H1112.38L1091.9 425.794H1064.61L1061.57 431.844H1088.87L1070.67 463.608C1067.64 468.902 1069.15 476.465 1075.22 479.49C1087.35 486.297 1100.24 493.86 1112.38 500.667C1113.89 501.423 1116.17 502.179 1118.44 502.179H1152.56L1166.21 478.734H1108.58C1106.31 478.734 1104.03 475.709 1105.55 473.44C1120.72 446.97 1126.78 436.382 1129.82 431.088H1158.63V431.844ZM984.229 617.892C987.262 612.598 985.745 605.035 979.679 602.01L928.117 572.515C926.601 571.758 925.842 569.489 926.601 567.977L935.7 552.095C936.458 551.338 937.216 550.582 938.733 550.582H993.328L1006.98 527.137H916.743C912.194 527.137 908.402 529.406 906.127 533.187C903.094 538.481 900.061 543.019 897.028 548.313C893.995 553.607 895.512 561.17 901.578 564.195L953.14 593.691C954.656 594.447 955.415 596.716 954.657 598.229L946.315 612.598C945.557 614.111 944.799 614.867 943.283 614.867H888.687H731.726C727.177 614.867 723.385 617.136 721.11 620.917C718.077 626.211 715.045 630.749 712.012 636.043C708.979 641.337 710.495 648.9 716.561 651.925L768.123 681.421C769.639 682.177 770.398 684.446 769.64 685.959L761.299 700.328C760.541 701.841 759.782 702.597 758.266 702.597H715.044L701.396 726.042H780.255C784.805 726.042 788.596 723.773 790.871 719.992L799.212 705.622C802.245 700.328 800.728 692.765 794.662 689.74L743.1 660.245C741.584 659.488 740.825 657.219 741.584 655.707L750.683 639.825C751.441 639.068 752.2 638.312 753.716 638.312H875.039H965.272C969.822 638.312 973.613 636.043 975.888 632.262L984.229 617.892ZM1080.53 567.221L1083.56 561.17C1067.64 561.17 1061.57 561.17 1053.99 561.17C1056.26 557.389 1058.54 553.607 1074.46 526.381H1041.1H1034.27L1013.8 561.17H986.503L983.471 567.221H1010.77L992.57 598.985C989.537 604.279 991.053 611.842 997.119 614.867C1009.25 621.674 1022.14 629.237 1034.27 636.043C1035.79 636.799 1038.07 637.556 1040.34 637.556H1074.46L1088.11 614.111H1030.48C1028.21 614.111 1025.93 611.086 1027.45 608.817C1042.62 582.346 1048.68 571.758 1051.71 566.464L1080.53 567.221ZM1362.6 529.406C1365.64 524.112 1364.12 516.549 1358.05 513.524L1306.49 484.028C1304.97 483.272 1304.22 481.003 1304.97 479.49L1314.07 463.608C1314.83 462.852 1315.59 462.096 1317.11 462.096H1371.7L1385.35 438.651H1295.12C1290.57 438.651 1286.78 440.919 1284.5 444.701C1281.47 449.995 1278.44 454.533 1275.4 459.827C1272.37 465.121 1273.89 472.684 1279.95 475.709L1331.51 505.204C1333.03 505.961 1333.79 508.23 1333.03 509.742L1324.69 524.112C1323.93 525.624 1323.17 526.381 1321.66 526.381H1267.06H1110.1C1105.55 526.381 1101.76 528.65 1099.49 532.431C1096.45 537.725 1093.42 542.263 1090.39 547.557C1087.35 552.851 1088.87 560.414 1094.94 563.439L1146.5 592.935C1148.01 593.691 1148.77 595.96 1148.01 597.472L1139.67 611.842C1138.91 613.354 1138.16 614.111 1136.64 614.111H1093.42L1079.77 637.556H1158.63C1163.18 637.556 1166.97 635.287 1169.25 631.506L1177.59 617.136C1180.62 611.842 1179.1 604.279 1173.04 601.254L1121.47 571.758C1119.96 571.002 1119.2 568.733 1119.96 567.221L1129.06 551.338C1129.82 550.582 1130.57 549.826 1132.09 549.826H1253.41H1343.65C1348.2 549.826 1351.99 547.557 1354.26 543.775L1362.6 529.406ZM1380.8 614.867L1383.83 608.817C1367.91 608.817 1361.84 608.817 1354.26 608.817C1356.54 605.035 1358.81 601.254 1374.74 574.027H1341.37H1334.55L1314.07 608.817H1286.78L1283.74 614.867H1311.04L1292.84 646.631C1289.81 651.926 1291.33 659.488 1297.39 662.513C1309.52 669.32 1322.42 676.883 1334.55 683.69C1336.06 684.446 1338.34 685.202 1340.61 685.202H1374.74L1388.38 661.757H1330.76C1328.48 661.757 1326.21 658.732 1327.72 656.463C1342.89 629.993 1348.95 619.405 1351.99 614.111H1380.8V614.867ZM0.75808 117.226V66.5539H30.3306C14.407 93.7805 12.1322 98.3183 9.85736 101.343C17.44 101.343 24.2646 101.343 39.4299 101.343L36.3967 107.394H6.06603L0.75808 117.226ZM0.75808 178.485V155.04H42.4627L28.814 178.485H0.75808ZM0.75808 238.233V201.93H145.587H200.182C201.699 201.93 202.457 201.174 203.215 199.662L211.556 185.292C212.315 183.779 212.314 181.511 210.04 180.754L158.478 151.259C153.17 148.234 150.895 140.671 153.928 135.377C156.961 130.083 159.994 124.789 163.027 120.251C165.302 116.469 169.093 114.2 173.643 114.2H263.876L250.228 137.645H195.632C194.116 137.645 193.358 138.402 192.6 139.158L183.5 155.04C182.742 156.553 182.742 158.822 185.017 159.578L236.579 189.074C241.887 192.099 244.161 199.662 241.128 204.956L232.788 219.325C230.513 223.107 226.721 225.376 222.172 225.376H131.938H10.6159C9.09937 225.376 8.34092 226.132 7.58266 226.888L0.75808 238.233ZM0.75808 313.862V290.417H14.4072C15.9238 290.417 16.6818 289.661 17.44 288.148L25.7812 273.778C26.5395 272.266 26.5394 269.997 24.2646 269.241L0 255.627V248.821L50.0453 277.56C55.3532 280.585 57.6283 288.148 54.5952 293.442L46.254 307.812C43.9792 311.593 40.1882 313.862 35.6386 313.862H0.75808ZM0.75808 360.752V337.307H66.7273H121.322C122.839 337.307 123.597 336.551 124.356 335.038L132.696 320.669C133.455 319.156 133.455 316.887 131.18 316.131L79.6179 286.635C74.31 283.61 72.0354 276.047 75.0685 270.753C78.1015 265.459 81.1342 260.165 84.1673 255.627C86.4421 251.846 90.2336 249.577 94.7832 249.577H185.017L171.368 273.022H116.773C115.257 273.022 114.498 273.778 113.74 274.535L104.641 290.417C103.882 291.93 103.882 294.198 106.157 294.955L157.719 324.45C163.027 327.475 165.302 335.038 162.269 340.332L153.928 354.702C151.653 358.483 147.862 360.752 143.312 360.752H53.0786H0.75808ZM0.75808 496.129V472.684H42.4627C43.9792 472.684 44.7377 471.927 45.4959 470.415L53.8367 456.045C54.5949 454.533 54.5953 452.264 52.3205 451.508L0.75808 422.012H0V399.323L5.30795 390.248C7.58275 386.466 11.3738 384.197 15.9234 384.197H106.157L92.5085 407.643H37.9133C36.3967 407.643 35.6383 408.399 34.88 409.155L25.7812 425.037C25.0229 426.55 25.0226 428.819 27.2974 429.575L78.8598 459.07C84.1677 462.096 86.4423 469.659 83.4092 474.953L75.0685 489.322C72.7937 493.104 69.0022 495.373 64.4526 495.373L0.75808 496.129ZM0.75808 543.775V520.33H27.2974L13.6487 543.775H0.75808ZM0.75808 618.648V595.96C6.06594 598.985 7.58247 606.548 4.54941 611.842L0.75808 618.648ZM0.75808 682.934V655.707H16.6819L0.75808 682.934ZM0.75808 696.547V690.496H26.5393L23.506 696.547H0.75808ZM25.0227 751H0.75808V744.193H28.814L25.0227 751ZM118.289 751H32.6053L36.3967 744.193H79.6179C81.1344 744.193 81.8929 743.437 82.6511 741.924L90.9919 727.555C91.7501 726.042 91.75 723.773 89.4753 723.017L37.9133 693.522C32.6054 690.496 30.3308 682.933 33.3639 677.639C36.3969 672.345 39.4296 667.051 42.4627 662.513C44.7375 658.732 48.529 656.463 53.0786 656.463H210.04H264.635C266.151 656.463 266.909 655.707 267.668 654.194L276.009 639.825C276.767 638.312 276.767 636.043 274.492 635.287L222.93 605.791C217.622 602.766 215.347 595.203 218.38 589.909C221.413 584.615 224.447 579.321 227.48 574.784C229.754 571.002 233.546 568.733 238.096 568.733H328.329L314.68 592.178H260.085C258.568 592.178 257.81 592.935 257.052 593.691L247.953 609.573C247.195 611.086 247.195 613.354 249.47 614.111L301.032 643.606C306.339 646.631 308.614 654.194 305.581 659.488L297.24 673.858C294.965 677.639 291.174 679.908 286.624 679.908H196.391H75.0685C73.5519 679.908 72.7935 680.665 72.0352 681.421L62.936 697.303C62.1777 698.816 62.1778 701.085 64.4526 701.841L116.015 731.336C121.322 734.361 123.597 741.924 120.564 747.219L118.289 751ZM173.643 751H162.269L144.07 740.412C138.763 737.387 136.488 729.824 139.521 724.53C142.554 719.236 145.587 713.942 148.62 709.404C150.895 705.622 154.686 703.354 159.236 703.354H249.47L235.82 726.798H181.226C179.709 726.798 178.951 727.555 178.192 728.311L169.093 744.193C168.335 745.706 168.335 747.975 170.61 748.731L173.643 751ZM288.899 751H248.711L252.502 744.193H225.205L228.238 738.143H255.536L276.009 703.354H282.833H316.197C300.273 730.58 297.998 735.118 295.724 738.143C303.306 738.143 310.131 738.143 325.296 738.143L322.263 744.193H292.69L288.899 751ZM367.759 751H356.385L338.186 740.412C332.878 737.387 330.604 729.824 333.637 724.53C336.67 719.236 339.703 713.942 342.736 709.404C345.011 705.622 348.802 703.354 353.352 703.354H510.313H564.908C566.424 703.354 567.183 702.597 567.941 701.085L576.282 686.715C577.04 685.202 577.04 682.933 574.765 682.177L523.203 652.682C517.895 649.657 515.621 642.094 518.654 636.8C521.687 631.505 524.72 626.211 527.753 621.674C530.027 617.892 533.819 615.623 538.369 615.623H628.602L614.953 639.069H560.358C558.842 639.069 558.083 639.825 557.325 640.581L548.226 656.463C547.468 657.976 547.468 660.245 549.743 661.001L601.305 690.496C606.612 693.522 608.887 701.085 605.854 706.379L597.513 720.748C595.238 724.53 591.447 726.798 586.898 726.798H496.664H375.341C373.825 726.798 373.066 727.555 372.308 728.311L363.209 744.193C362.451 745.706 362.451 747.975 364.726 748.731L367.759 751ZM548.984 751H455.717C456.476 751 457.992 750.244 458.751 750.244L548.984 751ZM616.47 751H576.282V750.244H583.106L616.47 751ZM906.885 751H650.592C651.35 751 652.867 750.244 653.625 750.244H810.586H865.181C866.697 750.244 867.456 749.487 868.214 747.975L876.555 733.605C877.313 732.093 877.313 729.824 875.039 729.068L823.476 699.572C818.168 696.547 815.894 688.984 818.927 683.69C821.96 678.396 824.993 673.102 828.026 668.564C830.301 664.783 834.092 662.513 838.642 662.513H928.875L915.227 685.959H860.631C859.115 685.959 858.356 686.715 857.598 687.471L848.499 703.354C847.741 704.866 847.741 707.135 850.016 707.891L901.578 737.387C906.128 740.412 907.644 745.706 906.885 751ZM1007.74 751H916.743C911.435 747.975 909.919 740.412 912.952 735.118L931.15 703.354H903.853L906.885 697.303H934.183L954.657 662.513H961.481H994.845C978.921 689.74 976.646 694.278 974.371 697.303C981.954 697.303 988.779 697.303 1003.94 697.303L1000.91 703.354H970.58C967.547 708.648 961.481 719.236 946.315 745.706C944.799 747.975 947.074 751 949.349 751H1007.74ZM1100.24 751H1015.32V750.244H1058.54C1060.06 750.244 1060.81 749.487 1061.57 747.975L1069.91 733.605C1070.67 732.093 1070.67 729.824 1068.4 729.068L1016.83 699.572C1011.53 696.547 1009.25 688.984 1012.28 683.69C1015.32 678.396 1018.35 673.102 1021.38 668.564C1023.66 664.783 1027.45 662.513 1032 662.513H1188.96H1243.56C1245.07 662.513 1245.83 661.757 1246.59 660.245L1254.93 645.875C1255.69 644.363 1255.69 642.094 1253.41 641.337L1201.85 611.842C1196.54 608.817 1194.27 601.254 1197.3 595.96C1200.33 590.666 1203.37 585.372 1206.4 580.834C1208.68 577.052 1212.47 574.784 1217.02 574.784H1307.25L1293.6 598.229H1239.01C1237.49 598.229 1236.73 598.985 1235.97 599.741L1226.87 615.623C1226.12 617.136 1226.12 619.405 1228.39 620.161L1279.95 649.657C1285.26 652.682 1287.54 660.245 1284.5 665.539L1276.16 679.908C1273.89 683.69 1270.1 685.959 1265.55 685.959H1175.31H1053.99C1052.47 685.959 1051.71 686.715 1050.96 687.471L1041.86 703.354C1041.1 704.866 1041.1 707.135 1043.37 707.891L1094.94 737.387C1099.49 740.412 1101.76 745.706 1100.24 751ZM1148.01 751H1130.57L1123.75 747.219C1118.44 744.193 1116.17 736.63 1119.2 731.336C1122.23 726.042 1125.27 720.748 1128.3 716.21C1130.57 712.429 1134.37 710.16 1138.92 710.16H1228.39L1214.74 733.605H1160.15C1158.63 733.605 1157.87 734.361 1157.11 735.118L1148.01 751C1148.01 750.244 1148.01 750.244 1148.01 751ZM1271.61 751H1231.42V750.244H1204.13L1207.16 744.193H1234.46L1254.93 709.404H1261.75H1295.12C1279.19 736.63 1276.92 741.168 1274.64 744.193C1282.23 744.193 1289.05 744.193 1304.22 744.193L1301.18 750.244L1271.61 751ZM1398.24 709.404V732.849H1355.02C1353.5 732.849 1352.75 733.605 1351.99 734.361L1342.89 750.244C1342.89 750.244 1342.89 750.244 1342.89 751H1325.45L1318.62 747.219C1313.32 744.193 1311.04 736.63 1314.07 731.336C1317.11 726.042 1320.14 720.748 1323.17 716.21C1325.45 712.429 1329.24 710.16 1333.79 710.16H1398.24V709.404ZM1398.24 661.757V685.202H1380.8L1394.45 661.757H1398.24ZM1398.24 583.859V611.842L1395.97 611.086C1390.66 608.06 1388.38 600.497 1391.42 595.203L1398.24 583.859ZM1398.24 462.852V539.994C1390.66 535.456 1382.32 530.918 1374.74 526.381C1369.43 523.356 1367.15 515.793 1370.19 510.498L1388.38 478.734H1361.09L1364.12 472.684H1391.42L1398.24 462.852ZM1398.24 391.004V414.449H1333.03H1211.71C1210.19 414.449 1209.43 415.205 1208.68 415.962L1199.58 431.844C1198.82 433.357 1198.82 435.625 1201.09 436.382L1252.65 465.877C1257.96 468.902 1260.24 476.465 1257.2 481.759L1248.86 496.129C1246.59 499.91 1242.8 502.179 1238.25 502.179H1159.39L1173.04 478.734H1216.26C1217.77 478.734 1218.53 477.978 1219.29 476.465L1227.63 462.096C1228.39 460.583 1228.39 458.314 1226.12 457.558L1174.55 428.062C1169.25 425.037 1166.97 417.474 1170 412.18C1173.04 406.886 1176.07 401.592 1179.1 397.054C1181.38 393.273 1185.17 391.004 1189.72 391.004H1346.68H1398.24ZM1398.24 302.518V325.963H1395.97C1394.45 325.963 1393.69 326.719 1392.93 327.475L1383.83 343.358C1383.08 344.87 1383.08 347.139 1385.35 347.895L1398.24 355.458V362.265L1359.57 340.332C1354.26 337.307 1351.99 329.744 1355.02 324.45C1358.05 319.156 1361.09 313.862 1364.12 309.324C1366.39 305.543 1370.19 303.274 1374.74 303.274H1398.24V302.518ZM1398.24 254.871V278.316H1289.81C1288.29 278.316 1287.54 279.072 1286.78 279.829L1277.68 295.711C1276.92 297.224 1276.92 299.492 1279.19 300.249L1330.76 329.744C1336.06 332.769 1338.34 340.332 1335.31 345.626L1326.96 359.996C1324.69 363.777 1320.9 366.046 1316.35 366.046H1237.49L1251.14 342.601H1294.36C1295.88 342.601 1296.63 341.845 1297.39 340.332L1305.73 325.963C1306.49 324.45 1306.49 322.181 1304.22 321.425L1252.65 291.93C1247.35 288.904 1245.07 281.341 1248.1 276.047C1251.14 270.753 1254.17 265.459 1257.2 260.921C1259.48 257.14 1263.27 254.871 1267.82 254.871H1398.24ZM1398.24 119.494V142.94H1368.67C1367.15 142.94 1366.39 143.696 1365.64 144.452L1356.54 160.334C1355.78 161.847 1355.78 164.116 1358.05 164.872L1399 188.317V230.67C1398.24 230.67 1396.73 231.426 1395.21 231.426H1316.35L1330 207.981H1373.22C1374.74 207.981 1375.49 207.225 1376.25 205.712L1384.59 191.342C1385.35 189.83 1385.35 187.561 1383.08 186.805L1331.51 157.309C1326.21 154.284 1323.93 146.721 1326.96 141.427C1330 136.133 1333.03 130.839 1336.06 126.301C1338.34 122.52 1342.13 120.251 1346.68 120.251H1398.24V119.494ZM1398.24 89.2427V96.0493H1394.45L1398.24 89.2427ZM1338.34 0H1378.53L1367.91 18.9074C1375.49 18.9074 1382.32 18.9074 1397.48 18.9074L1394.45 24.9577H1364.12C1361.09 30.2518 1355.02 40.8399 1339.86 67.3102C1338.34 69.5791 1340.61 72.6043 1342.89 72.6043H1398.24V77.142L1387.63 96.0493H1353.5C1351.23 96.0493 1349.71 95.293 1347.44 94.5368C1335.31 87.7301 1322.42 80.1671 1310.28 73.3605C1304.97 70.3353 1302.7 62.7724 1305.73 57.4784L1323.93 25.7141H1296.63L1299.67 19.6637H1326.96L1338.34 0ZM1214.74 0H1311.8L1307.25 7.56294H1252.65C1251.14 7.56294 1250.38 8.31921 1249.62 9.07551L1240.52 24.9577C1239.76 26.4703 1239.76 28.7392 1242.04 29.4955L1293.6 58.991C1298.91 62.0161 1301.18 69.5791 1298.15 74.8732L1289.81 89.2427C1287.53 93.0242 1283.74 95.2931 1279.19 95.2931H1188.96H1067.64C1066.12 95.2931 1065.36 96.0494 1064.61 96.8057L1055.51 112.688C1054.75 114.2 1054.75 116.469 1057.02 117.226L1108.58 146.721C1113.89 149.746 1116.17 157.309 1113.13 162.603L1104.79 176.973C1102.52 180.754 1098.73 183.023 1094.18 183.023H1015.32L1028.97 159.578H1072.19C1073.7 159.578 1074.46 158.822 1075.22 157.309L1083.56 142.94C1084.32 141.427 1084.32 139.158 1082.05 138.402L1030.48 108.906C1025.18 105.881 1022.9 98.3182 1025.93 93.0242C1028.97 87.7301 1032 82.4361 1035.03 77.8983C1037.31 74.1168 1041.1 71.8479 1044.89 71.8479H1201.85H1256.45C1257.96 71.8479 1258.72 71.0916 1259.48 69.579L1267.82 55.2095C1268.58 53.6969 1268.58 51.428 1266.3 50.6717L1214.74 21.1763C1209.43 18.1511 1207.16 10.5881 1210.19 5.29403L1214.74 0ZM1154.84 0H1166.21L1186.69 12.1007C1191.99 15.1259 1194.27 22.6888 1191.24 27.9829L1182.89 42.3525C1180.62 46.134 1176.83 48.4029 1172.28 48.4029H1093.42L1107.07 24.9577H1150.29C1151.81 24.9577 1152.56 24.2014 1153.32 22.6888L1161.66 8.31928C1162.42 6.80669 1162.42 4.53776 1160.15 3.78147L1154.84 0ZM1010.77 0H1050.96L1039.58 19.6637C1038.07 21.9326 1040.34 24.9577 1042.62 24.9577H1100.24L1086.59 48.4029H1052.47C1050.2 48.4029 1048.68 47.6465 1046.41 46.8902C1034.27 40.0836 1021.38 32.5207 1009.25 25.7141C1003.94 22.6889 1001.67 15.1259 1004.7 9.83185L1010.77 0ZM960.723 0H972.097L992.57 12.1007C997.878 15.1259 1000.15 22.6888 997.119 27.9829L988.779 42.3525C986.504 46.134 982.712 48.4029 978.163 48.4029H887.929H766.606C765.09 48.4029 764.332 49.1592 763.574 49.9155L754.474 65.7976C753.716 67.3101 753.716 69.5791 755.991 70.3354L807.553 99.8308C812.861 102.856 815.135 110.419 812.102 115.713L803.762 130.083C801.487 133.864 797.695 136.133 793.146 136.133H714.286L727.935 112.688H771.156C772.673 112.688 773.431 111.932 774.189 110.419L782.53 96.0493C783.288 94.5367 783.288 92.2679 781.014 91.5116L729.452 62.0161C724.144 58.9909 721.869 51.428 724.902 46.134C727.935 40.8399 730.968 35.5459 734.001 31.0081C736.276 27.2266 740.067 24.9577 744.617 24.9577H902.336H956.931C958.448 24.9577 959.206 24.2014 959.964 22.6888L968.305 8.31928C969.064 6.80669 969.063 4.53776 966.789 3.78147L960.723 0ZM793.904 0H877.313C875.797 0.756294 874.28 1.51256 872.005 1.51256H793.146L793.904 0ZM746.892 0H787.08L786.322 1.51256H752.2C750.683 1.51256 748.408 1.51259 746.892 0ZM425.387 0H683.956C682.439 0.756294 680.922 1.51256 678.648 1.51256H588.414H467.091C465.575 1.51256 464.817 2.26895 464.059 3.02525L454.959 18.9074C454.201 20.4199 454.201 22.6889 456.476 23.4452L508.038 52.9406C513.346 55.9658 515.62 63.5287 512.587 68.8228L504.247 83.1923C501.972 86.9738 498.18 89.2427 493.631 89.2427H414.771L428.42 65.7976H471.641C473.158 65.7976 473.916 65.0414 474.674 63.5288L483.015 49.1591C483.774 47.6465 483.773 45.3777 481.499 44.6214L429.937 15.1259C425.387 12.1007 423.112 6.05035 425.387 0ZM355.627 0H395.815L388.232 12.857C395.815 12.857 402.639 12.857 417.804 12.857L414.771 18.9074H385.199C382.166 24.2014 376.1 34.7896 360.934 61.2599C359.418 63.5287 361.693 66.5539 363.967 66.5539H421.595L407.947 89.9991H373.825C371.55 89.9991 370.034 89.2427 367.759 88.4864C355.627 81.6797 342.736 74.1169 330.604 67.3102C325.296 64.2851 323.021 56.7221 326.054 51.428L344.253 19.6637H316.955L319.988 13.6133H347.286L355.627 0ZM232.029 0H328.329L327.571 0.75634H272.976C271.459 0.75634 270.701 1.51261 269.942 2.26891L260.844 18.1511C260.085 19.6637 260.085 21.9325 262.36 22.6888L313.922 52.1844C319.23 55.2095 321.505 62.7724 318.472 68.0665L310.131 82.4361C307.856 86.2176 304.065 88.4864 299.515 88.4864H209.281H87.9586C86.4421 88.4864 85.6841 89.2428 84.9258 89.9991L75.8266 105.881C75.0683 107.394 75.0684 109.663 77.3432 110.419L128.905 139.914C134.213 142.94 136.488 150.503 133.455 155.797L125.114 170.166C122.839 173.948 119.048 176.217 114.498 176.217H35.6386L49.2873 152.771H92.5085C94.025 152.771 94.783 152.015 95.5413 150.503L103.882 136.133C104.641 134.62 104.641 132.352 102.366 131.595L50.8039 102.1C45.496 99.0745 43.221 91.5116 46.254 86.2176C49.2871 80.9235 52.3202 75.6295 55.3533 71.0917C57.6281 67.3102 61.4196 65.0413 65.9692 65.0413H222.93H277.525C279.042 65.0413 279.8 64.285 280.558 62.7724L288.899 48.4029C289.657 46.8903 289.658 44.6214 287.383 43.8651L235.82 14.3697C231.271 12.1008 228.996 6.05035 232.029 0ZM183.5 0H197.907L207.765 6.05037C213.073 9.07555 215.347 16.6385 212.314 21.9326L203.974 36.3021C201.699 40.0836 197.907 42.3525 193.358 42.3525H114.498L128.147 18.9074H171.368C172.884 18.9074 173.643 18.151 174.401 16.6384L182.742 2.26891C183.5 1.51261 183.5 0.756294 183.5 0ZM28.0559 0H68.2439L60.6612 13.6133C59.1447 15.8822 61.4197 18.9074 63.6945 18.9074H121.322L107.674 42.3525H73.5519C71.2771 42.3525 69.7606 41.5962 67.4858 40.8399C55.3536 34.0333 42.4629 26.4703 30.3306 19.6637C25.0228 16.6385 22.7482 9.07553 25.7812 3.78147L28.0559 0ZM0.75808 0H3.79133L13.6487 6.05037C18.9565 9.07555 21.2316 16.6385 18.1986 21.9326L9.85736 36.3021C7.58256 39.3273 4.54941 41.5962 0.75808 42.3525V0Z" fill="white" fill-opacity="0.01"/>
</svg>
