<svg width="19" height="19" viewBox="0 0 19 19" fill="none" xmlns="http://www.w3.org/2000/svg">
<path d="M9.5 0C7.62108 0 5.78435 0.557165 4.22209 1.60104C2.65982 2.64491 1.44218 4.12861 0.723149 5.86451C0.0041162 7.6004 -0.184015 9.51054 0.182544 11.3534C0.549104 13.1962 1.45389 14.8889 2.78249 16.2175C4.11109 17.5461 5.80383 18.4509 7.64665 18.8175C9.48946 19.184 11.3996 18.9959 13.1355 18.2769C14.8714 17.5578 16.3551 16.3402 17.399 14.7779C18.4428 13.2156 19 11.3789 19 9.5C18.9972 6.98129 17.9955 4.56654 16.2145 2.78554C14.4335 1.00454 12.0187 0.00276602 9.5 0ZM9.5 17.1C7.99686 17.1 6.52748 16.6543 5.27767 15.8192C4.02786 14.9841 3.05375 13.7971 2.47852 12.4084C1.90329 11.0197 1.75279 9.49157 2.04604 8.01731C2.33928 6.54306 3.06311 5.18887 4.12599 4.12599C5.18887 3.06311 6.54306 2.33928 8.01732 2.04603C9.49157 1.75278 11.0197 1.90329 12.4084 2.47852C13.7971 3.05374 14.9841 4.02785 15.8192 5.27766C16.6543 6.52748 17.1 7.99686 17.1 9.5C17.0975 11.5149 16.296 13.4465 14.8712 14.8712C13.4465 16.296 11.5149 17.0975 9.5 17.1ZM9.5 9.025C9.24805 9.025 9.00641 9.12509 8.82825 9.30325C8.65009 9.48141 8.55 9.72304 8.55 9.975V12.825C8.55 13.077 8.65009 13.3186 8.82825 13.4967C9.00641 13.6749 9.24805 13.775 9.5 13.775C9.75196 13.775 9.99359 13.6749 10.1718 13.4967C10.3499 13.3186 10.45 13.077 10.45 12.825V9.975C10.45 9.72304 10.3499 9.48141 10.1718 9.30325C9.99359 9.12509 9.75196 9.025 9.5 9.025ZM9.5 5.225C9.26514 5.225 9.03555 5.29464 8.84026 5.42513C8.64498 5.55561 8.49277 5.74107 8.4029 5.95806C8.31302 6.17505 8.2895 6.41382 8.33532 6.64417C8.38114 6.87452 8.49424 7.08611 8.66031 7.25219C8.82639 7.41826 9.03798 7.53136 9.26833 7.57718C9.49868 7.623 9.73745 7.59948 9.95444 7.5096C10.1714 7.41973 10.3569 7.26752 10.4874 7.07224C10.6179 6.87695 10.6875 6.64736 10.6875 6.4125C10.6875 6.09755 10.5624 5.79551 10.3397 5.57281C10.117 5.35011 9.81495 5.225 9.5 5.225Z" fill="#FD1C1D"/>
</svg>
