<svg width="13" height="21" viewBox="0 0 13 21" fill="none" xmlns="http://www.w3.org/2000/svg">
<path d="M1.85714 21C1.34643 21 0.909073 20.8129 0.545073 20.4387C0.181073 20.0645 -0.000617471 19.6153 1.57652e-06 19.0909V1.90909C1.57652e-06 1.38409 0.182001 0.934501 0.546001 0.56032C0.910001 0.186138 1.34705 -0.000634743 1.85714 1.62062e-06H11.1429C11.6536 1.62062e-06 12.0909 0.187093 12.4549 0.561274C12.8189 0.935456 13.0006 1.38473 13 1.90909V19.0909C13 19.6159 12.818 20.0655 12.454 20.4397C12.09 20.8139 11.653 21.0006 11.1429 21H1.85714ZM1.85714 18.1364V19.0909H11.1429V18.1364H1.85714ZM1.85714 16.2273H11.1429V4.77273H1.85714V16.2273ZM1.85714 2.86364H11.1429V1.90909H1.85714V2.86364Z" fill="#FD1C1D"/>
</svg>
