<svg width="29" height="29" viewBox="0 0 29 29" fill="none" xmlns="http://www.w3.org/2000/svg">
<path d="M29 21.025V25.375C29 26.3364 28.6181 27.2584 27.9383 27.9383C27.2584 28.6181 26.3364 29 25.375 29H15.022C13.7315 29 13.0935 27.4485 13.9925 26.535L22.504 17.835C22.7795 17.5595 23.1565 17.4 23.5335 17.4H25.375C26.3364 17.4 27.2584 17.7819 27.9383 18.4617C28.6181 19.1416 29 20.0636 29 21.025ZM23.7365 13.4705L19.807 17.4L16.24 20.9525C15.3265 21.866 13.7605 21.228 13.7605 19.9375V7.627C13.7605 7.2355 13.92 6.873 14.181 6.5975L15.515 5.2635C16.936 3.8425 19.227 3.8425 20.648 5.2635L23.722 8.3375C25.1575 9.7585 25.1575 12.0495 23.7365 13.4705ZM7.975 0H3.625C1.45 0 0 1.45 0 3.625V23.2C0 23.5915 0.0434999 23.983 0.116 24.36C0.1595 24.5485 0.203 24.737 0.261 24.9255C0.3335 25.143 0.406 25.3605 0.493 25.5635C0.5075 25.578 0.5075 25.5925 0.5075 25.5925C0.522 25.5925 0.522 25.5925 0.5075 25.607C0.7105 26.013 0.9425 26.4045 1.218 26.767C1.3775 26.9555 1.537 27.1295 1.6965 27.3035C1.856 27.4775 2.03 27.6225 2.2185 27.7675L2.233 27.782C2.5955 28.0575 2.987 28.2895 3.393 28.4925C3.4075 28.478 3.4075 28.478 3.4075 28.4925C3.625 28.594 3.8425 28.6665 4.0745 28.739C4.263 28.797 4.4515 28.8405 4.64 28.884C5.017 28.9565 5.4085 29 5.8 29C6.3945 29 7.0035 28.913 7.569 28.7245C7.7285 28.6665 7.888 28.6085 8.0475 28.536C8.555 28.333 9.048 28.043 9.483 27.666C9.6135 27.5645 9.7585 27.434 9.889 27.3035L9.947 27.2455C10.962 26.2015 11.6 24.766 11.6 23.2V3.625C11.6 1.45 10.15 0 7.975 0ZM5.8 25.375C4.5965 25.375 3.625 24.4035 3.625 23.2C3.625 21.9965 4.5965 21.025 5.8 21.025C7.0035 21.025 7.975 21.9965 7.975 23.2C7.975 24.4035 7.0035 25.375 5.8 25.375Z" fill="#FD1C1D"/>
</svg>
