<svg width="29" height="35" viewBox="0 0 29 35" fill="none" xmlns="http://www.w3.org/2000/svg">
<path d="M14.4995 7.72059C14.9382 7.72059 15.3377 7.94659 15.5206 8.29744L16.9705 11.0891L20.2673 11.4981C20.6881 11.5508 21.0394 11.808 21.174 12.1621C21.3087 12.5162 21.2054 12.9068 20.9047 13.1716L18.4652 15.324L19.0722 18.4041C19.1064 18.5921 19.0808 18.7857 18.9987 18.9596C18.9167 19.1334 18.782 19.2796 18.6122 19.3791C18.4344 19.4871 18.2303 19.5486 18.0201 19.5577C17.8099 19.5667 17.6009 19.523 17.4137 19.4308L14.4995 17.9768L11.5853 19.4297C11.398 19.5221 11.1887 19.5659 10.9783 19.5569C10.7679 19.5478 10.5636 19.4862 10.3857 19.3781C10.2159 19.2786 10.0812 19.1324 9.99913 18.9585C9.91708 18.7846 9.89146 18.5911 9.9256 18.403L10.5338 15.3229L8.09425 13.1705C7.94926 13.0474 7.84609 12.8853 7.79808 12.7054C7.75007 12.5254 7.75943 12.3358 7.82494 12.161C7.9596 11.8059 8.31083 11.5497 8.73163 11.497L12.0285 11.088L13.4783 8.29636C13.6612 7.94552 14.0618 7.72059 14.4995 7.72059Z" fill="#FD1C1D"/>
<path fill-rule="evenodd" clip-rule="evenodd" d="M2.12e-06 14.219C2.12e-06 6.36573 6.49154 0 14.5 0C22.5085 0 29 6.36573 29 14.219C29.0013 16.607 28.3888 18.9568 27.2191 21.0513C26.0494 23.1457 24.3603 24.9173 22.3077 26.2023V33.9068C22.3076 34.0932 22.2589 34.2764 22.1663 34.4392C22.0737 34.6019 21.9402 34.7388 21.7786 34.8367C21.6169 34.9347 21.4324 34.9905 21.2425 34.9989C21.0526 35.0073 20.8637 34.968 20.6937 34.8846L14.5 31.8483L8.30627 34.8846C8.13626 34.968 7.94737 35.0073 7.75751 34.9989C7.56765 34.9905 7.38312 34.9347 7.22144 34.8367C7.05976 34.7388 6.92628 34.6019 6.83368 34.4392C6.74107 34.2764 6.69241 34.0932 6.69231 33.9068V26.2023C4.63974 24.9173 2.95057 23.1457 1.78087 21.0513C0.611174 18.9568 -0.00131506 16.607 2.12e-06 14.219ZM24.5385 14.219C24.5385 16.8298 23.4808 19.3336 21.5983 21.1797C19.7157 23.0258 17.1624 24.0629 14.5 24.0629C11.8376 24.0629 9.28431 23.0258 7.40174 21.1797C5.51916 19.3336 4.46154 16.8298 4.46154 14.219C4.46154 11.6082 5.51916 9.10438 7.40174 7.25829C9.28431 5.4122 11.8376 4.37507 14.5 4.37507C17.1624 4.37507 19.7157 5.4122 21.5983 7.25829C23.4808 9.10438 24.5385 11.6082 24.5385 14.219Z" fill="#FD1C1D"/>
</svg>
