<svg width="30" height="32" viewBox="0 0 30 32" fill="none" xmlns="http://www.w3.org/2000/svg">
<path fill-rule="evenodd" clip-rule="evenodd" d="M17.8086 0.243585C17.2239 0 16.4826 0 15 0C13.5174 0 12.7761 0 12.1914 0.243585C11.4117 0.568366 10.7922 1.19132 10.4693 1.97541C10.3219 2.33334 10.2642 2.7496 10.2416 3.35679C10.2084 4.24909 9.75341 5.07503 8.98447 5.52149C8.21554 5.96794 7.2768 5.95126 6.49182 5.53401C5.95765 5.25008 5.57035 5.0922 5.1884 5.04163C4.35172 4.93085 3.50555 5.15887 2.83604 5.67552C2.3339 6.06301 1.96325 6.70864 1.22195 7.99989C0.480653 9.29115 0.110004 9.93677 0.0273901 10.5678C-0.0827612 11.4093 0.14397 12.2603 0.657705 12.9336C0.892193 13.2409 1.22175 13.4992 1.73322 13.8224C2.48513 14.2976 2.96893 15.107 2.96888 16C2.96883 16.893 2.48505 17.7023 1.73321 18.1774C1.22166 18.5006 0.89206 18.759 0.65755 19.0663C0.143814 19.7396 -0.082917 20.5906 0.0272343 21.432C0.109848 22.0631 0.480497 22.7087 1.2218 24C1.9631 25.2913 2.33375 25.9369 2.83588 26.3244C3.50539 26.841 4.35157 27.069 5.18825 26.9583C5.57017 26.9077 5.95746 26.7498 6.49157 26.4659C7.27661 26.0487 8.21542 26.032 8.9844 26.4785C9.75338 26.925 10.2084 27.7509 10.2416 28.6433C10.2642 29.2504 10.3219 29.6667 10.4693 30.0246C10.7922 30.8087 11.4117 31.4316 12.1914 31.7564C12.7761 32 13.5174 32 15 32C16.4826 32 17.2239 32 17.8086 31.7564C18.5883 31.4316 19.2078 30.8087 19.5307 30.0246C19.6781 29.6666 19.7358 29.2504 19.7584 28.6432C19.7916 27.7509 20.2466 26.925 21.0154 26.4785C21.7844 26.0319 22.7233 26.0486 23.5083 26.4658C24.0424 26.7497 24.4297 26.9076 24.8116 26.9582C25.6483 27.0689 26.4945 26.8409 27.164 26.3243C27.6661 25.9368 28.0367 25.2911 28.778 23.9999C29.5194 22.7086 29.89 22.063 29.9726 21.4319C30.0828 20.5905 29.856 19.7395 29.3423 19.0662C29.1078 18.7589 28.7782 18.5005 28.2667 18.1773C27.5148 17.7022 27.0311 16.8929 27.0311 15.9999C27.0312 15.107 27.5149 14.2977 28.2667 13.8227C28.7783 13.4994 29.1079 13.2411 29.3425 12.9337C29.8562 12.2604 30.0829 11.4094 29.9728 10.568C29.8902 9.93688 29.5195 9.29126 28.7782 8C28.0369 6.70875 27.6663 6.06312 27.1641 5.67563C26.4946 5.15898 25.6484 4.93096 24.8118 5.04174C24.4298 5.0923 24.0425 5.25017 23.5084 5.53407C22.7234 5.95135 21.7846 5.96803 21.0156 5.52154C20.2466 5.07505 19.7916 4.24906 19.7584 3.3567C19.7358 2.74956 19.6781 2.33333 19.5307 1.97541C19.2078 1.19132 18.5883 0.568366 17.8086 0.243585ZM15 21C17.7614 21 20 18.7614 20 16C20 13.2386 17.7614 11 15 11C12.2386 11 10 13.2386 10 16C10 18.7614 12.2386 21 15 21Z" fill="#FD1C1D"/>
</svg>
