<svg width="21" height="20" viewBox="0 0 21 20" fill="none" xmlns="http://www.w3.org/2000/svg">
<path fill-rule="evenodd" clip-rule="evenodd" d="M13.0069 11.1691C12.6095 11.3238 12.3556 11.9164 12.098 12.2191C11.9659 12.3742 11.8084 12.3984 11.6054 12.3207C10.1137 11.7547 8.97018 10.8066 8.147 9.49922C8.00755 9.29648 8.03257 9.13633 8.20074 8.94805C8.44929 8.66914 8.76182 8.35234 8.82909 7.97656C8.97839 7.14531 7.83734 4.5668 6.33043 5.73516C1.99428 9.10039 13.5639 18.0258 15.652 13.1984C16.2426 11.8301 13.6656 10.9121 13.0069 11.1691ZM10.5001 18.2531C8.96649 18.2531 7.45754 17.8648 6.13643 17.1297C5.92438 17.0113 5.66803 16.9801 5.43096 17.0414L2.5603 17.7918L3.56025 15.6938C3.62713 15.5537 3.65394 15.3993 3.63795 15.2461C3.62195 15.093 3.56374 14.9467 3.4692 14.8219C2.39952 13.4098 1.83391 11.7426 1.83391 10C1.83391 5.44883 5.72135 1.74648 10.5001 1.74648C15.2788 1.74648 19.1658 5.44883 19.1658 10C19.1658 14.5508 15.2784 18.2531 10.5001 18.2531ZM10.5001 0C4.71032 0 0.000115046 4.48594 0.000115046 10C0.000115046 11.9398 0.578432 13.8027 1.67723 15.4195L0.0821458 18.7652C0.0100679 18.9164 -0.0153268 19.0839 0.00893366 19.2483C0.0331941 19.4126 0.106106 19.567 0.219137 19.6934C0.305344 19.7894 0.412382 19.8666 0.532889 19.9195C0.653396 19.9725 0.784512 19.9999 0.917219 20C1.50866 20 4.7337 19.0348 5.55442 18.8203C7.07158 19.5934 8.77331 20 10.5001 20C16.2894 20 21 15.5137 21 10C21 4.48594 16.2894 0 10.5001 0Z" fill="#FD1C1D"/>
</svg>
