<svg width="20" height="20" viewBox="0 0 20 20" fill="none" xmlns="http://www.w3.org/2000/svg">
<path fill-rule="evenodd" clip-rule="evenodd" d="M12.3875 11.1691C12.009 11.3238 11.7672 11.9164 11.5219 12.2191C11.3961 12.3742 11.2461 12.3984 11.0528 12.3207C9.63209 11.7547 8.54303 10.8066 7.75905 9.49922C7.62624 9.29648 7.65007 9.13633 7.81022 8.94805C8.04694 8.66914 8.34459 8.35234 8.40866 7.97656C8.55084 7.14531 7.46413 4.5668 6.02898 5.73516C1.89932 9.10039 12.918 18.0258 14.9067 13.1984C15.4692 11.8301 13.0149 10.9121 12.3875 11.1691ZM10.0001 18.2531C8.53952 18.2531 7.10241 17.8648 5.84422 17.1297C5.64227 17.0113 5.39813 16.9801 5.17235 17.0414L2.43838 17.7918L3.39072 15.6938C3.45441 15.5537 3.47994 15.3993 3.46471 15.2461C3.44948 15.093 3.39404 14.9467 3.304 14.8219C2.28525 13.4098 1.74658 11.7426 1.74658 10C1.74658 5.44883 5.44891 1.74648 10.0001 1.74648C14.5512 1.74648 18.2531 5.44883 18.2531 10C18.2531 14.5508 14.5508 18.2531 10.0001 18.2531ZM10.0001 0C4.48602 0 0.000109567 4.48594 0.000109567 10C0.000109567 11.9398 0.550888 13.8027 1.59737 15.4195L0.0782341 18.7652C0.00958844 18.9164 -0.0145969 19.0839 0.00850825 19.2483C0.0316134 19.4126 0.101053 19.567 0.208702 19.6934C0.290804 19.7894 0.392745 19.8666 0.507513 19.9195C0.622282 19.9725 0.747155 19.9999 0.873542 20C1.43682 20 4.50829 19.0348 5.28992 18.8203C6.73484 19.5934 8.35553 20 10.0001 20C15.5137 20 20 15.5137 20 10C20 4.48594 15.5137 0 10.0001 0Z" fill="#070707"/>
</svg>
