<svg width="460" height="509" viewBox="0 0 460 509" fill="none" xmlns="http://www.w3.org/2000/svg">
<rect width="460" height="509" fill="#ECEEF2"/>
<path d="M111.354 91.6464C111.158 91.4512 110.842 91.4512 110.646 91.6464L107.464 94.8284C107.269 95.0237 107.269 95.3403 107.464 95.5355C107.66 95.7308 107.976 95.7308 108.172 95.5355L111 92.7071L113.828 95.5355C114.024 95.7308 114.34 95.7308 114.536 95.5355C114.731 95.3403 114.731 95.0237 114.536 94.8284L111.354 91.6464ZM110.5 92V93.0076H111.5V92H110.5ZM110.5 95.0227V97.0379H111.5V95.0227H110.5ZM110.5 99.0531V101.068H111.5V99.0531H110.5ZM110.5 103.083V105.099H111.5V103.083H110.5ZM110.5 107.114V109.129H111.5V107.114H110.5ZM110.5 111.144V113.159H111.5V111.144H110.5ZM110.5 115.174V117.19H111.5V115.174H110.5ZM110.5 119.205V121.22H111.5V119.205H110.5ZM110.5 123.235V125.25H111.5V123.235H110.5ZM110.5 127.265V129.281H111.5V127.265H110.5ZM110.5 131.296V133.311H111.5V131.296H110.5ZM110.5 135.326V137.341H111.5V135.326H110.5ZM110.5 139.356V141.372H111.5V139.356H110.5ZM110.5 143.387V145.402H111.5V143.387H110.5ZM110.5 147.417V149.432H111.5V147.417H110.5ZM110.5 151.447V153.463H111.5V151.447H110.5ZM110.5 155.478V157.493H111.5V155.478H110.5ZM110.5 159.508V161.523H111.5V159.508H110.5ZM110.5 163.538V165.554H111.5V163.538H110.5ZM110.5 167.569V169.584H111.5V167.569H110.5ZM110.5 171.599V173.614H111.5V171.599H110.5ZM110.5 175.629V177.645H111.5V175.629H110.5ZM110.5 179.66V181.675H111.5V179.66H110.5ZM110.5 183.69V185.705H111.5V183.69H110.5ZM110.5 187.72V189.736H111.5V187.72H110.5ZM110.5 191.751V193.766H111.5V191.751H110.5ZM110.5 195.781V197.796H111.5V195.781H110.5ZM110.5 199.811V201.827H111.5V199.811H110.5ZM110.5 203.842V205.857H111.5V203.842H110.5ZM110.5 207.872L110.5 209.887H111.5L111.5 207.872H110.5ZM110.5 211.902V213.918H111.5V211.902H110.5ZM110.5 215.933V217.948H111.5V215.933H110.5ZM110.5 219.963V221.978H111.5V219.963H110.5ZM110.5 223.993V225.001H111.5V223.993H110.5Z" fill="#505050"/>
<path d="M109.646 415.354C109.842 415.55 110.158 415.55 110.354 415.354L113.536 412.173C113.731 411.977 113.731 411.661 113.536 411.465C113.34 411.27 113.024 411.27 112.828 411.465L110 414.294L107.172 411.465C106.976 411.27 106.66 411.27 106.464 411.465C106.269 411.661 106.269 411.977 106.464 412.173L109.646 415.354ZM109.5 282V283.008H110.5V282H109.5ZM109.5 285.023V287.038H110.5V285.023H109.5ZM109.5 289.053V291.068H110.5V289.053H109.5ZM109.5 293.083V295.099H110.5V293.083H109.5ZM109.5 297.114V299.129H110.5V297.114H109.5ZM109.5 301.144V303.159H110.5V301.144H109.5ZM109.5 305.174V307.19H110.5V305.174H109.5ZM109.5 309.205V311.22H110.5V309.205H109.5ZM109.5 313.235V315.25H110.5V313.235H109.5ZM109.5 317.265V319.281H110.5V317.265H109.5ZM109.5 321.296V323.311H110.5V321.296H109.5ZM109.5 325.326V327.341H110.5V325.326H109.5ZM109.5 329.356V331.372H110.5V329.356H109.5ZM109.5 333.387V335.402H110.5V333.387H109.5ZM109.5 337.417V339.432H110.5V337.417H109.5ZM109.5 341.447V343.463H110.5V341.447H109.5ZM109.5 345.478V347.493H110.5V345.478H109.5ZM109.5 349.508V351.523H110.5V349.508H109.5ZM109.5 353.538V355.554H110.5V353.538H109.5ZM109.5 357.569V359.584H110.5V357.569H109.5ZM109.5 361.599V363.614H110.5V361.599H109.5ZM109.5 365.629V367.645H110.5V365.629H109.5ZM109.5 369.66V371.675H110.5V369.66H109.5ZM109.5 373.69V375.705H110.5V373.69H109.5ZM109.5 377.72V379.736H110.5V377.72H109.5ZM109.5 381.751V383.766H110.5V381.751H109.5ZM109.5 385.781V387.796H110.5V385.781H109.5ZM109.5 389.811V391.827H110.5V389.811H109.5ZM109.5 393.842V395.857H110.5V393.842H109.5ZM109.5 397.872L109.5 399.887H110.5L110.5 397.872H109.5ZM109.5 401.902V403.918H110.5V401.902H109.5ZM109.5 405.933V407.948H110.5V405.933H109.5ZM109.5 409.963V411.978H110.5V409.963H109.5ZM109.5 413.993V415.001H110.5V413.993H109.5Z" fill="#505050"/>
<path d="M91.3 249.504C92.428 249.504 93.296 249.868 93.904 250.596C94.52 251.324 94.828 252.356 94.828 253.692C94.828 254.628 94.66 255.428 94.324 256.092C93.996 256.748 93.532 257.248 92.932 257.592C92.34 257.928 91.648 258.096 90.856 258.096C90.448 258.096 90.064 258.056 89.704 257.976C89.344 257.888 89.032 257.764 88.768 257.604L89.224 256.668C89.632 256.932 90.172 257.064 90.844 257.064C91.716 257.064 92.396 256.796 92.884 256.26C93.38 255.716 93.628 254.928 93.628 253.896V253.596C93.388 253.956 93.056 254.232 92.632 254.424C92.208 254.608 91.732 254.7 91.204 254.7C90.652 254.7 90.156 254.596 89.716 254.388C89.284 254.18 88.944 253.884 88.696 253.5C88.456 253.108 88.336 252.66 88.336 252.156C88.336 251.628 88.464 251.164 88.72 250.764C88.984 250.364 89.34 250.056 89.788 249.84C90.236 249.616 90.74 249.504 91.3 249.504ZM91.408 253.728C91.784 253.728 92.12 253.656 92.416 253.512C92.712 253.368 92.94 253.172 93.1 252.924C93.268 252.676 93.352 252.4 93.352 252.096C93.352 251.8 93.272 251.532 93.112 251.292C92.96 251.044 92.732 250.848 92.428 250.704C92.132 250.552 91.772 250.476 91.348 250.476C90.796 250.476 90.348 250.624 90.004 250.92C89.668 251.216 89.5 251.612 89.5 252.108C89.5 252.604 89.672 253 90.016 253.296C90.36 253.584 90.824 253.728 91.408 253.728ZM99.4143 258.096C98.7503 258.096 98.1583 257.928 97.6383 257.592C97.1263 257.248 96.7223 256.752 96.4263 256.104C96.1303 255.456 95.9823 254.688 95.9823 253.8C95.9823 252.912 96.1303 252.144 96.4263 251.496C96.7223 250.848 97.1263 250.356 97.6383 250.02C98.1583 249.676 98.7503 249.504 99.4143 249.504C100.07 249.504 100.654 249.676 101.166 250.02C101.686 250.356 102.094 250.848 102.39 251.496C102.686 252.144 102.834 252.912 102.834 253.8C102.834 254.688 102.686 255.456 102.39 256.104C102.094 256.752 101.686 257.248 101.166 257.592C100.654 257.928 100.07 258.096 99.4143 258.096ZM99.4143 257.028C100.086 257.028 100.622 256.752 101.022 256.2C101.43 255.648 101.634 254.848 101.634 253.8C101.634 252.752 101.43 251.952 101.022 251.4C100.622 250.848 100.086 250.572 99.4143 250.572C98.7343 250.572 98.1903 250.848 97.7823 251.4C97.3823 251.952 97.1823 252.752 97.1823 253.8C97.1823 254.848 97.3823 255.648 97.7823 256.2C98.1903 256.752 98.7343 257.028 99.4143 257.028ZM107.418 258.096C106.754 258.096 106.162 257.928 105.642 257.592C105.13 257.248 104.726 256.752 104.43 256.104C104.134 255.456 103.986 254.688 103.986 253.8C103.986 252.912 104.134 252.144 104.43 251.496C104.726 250.848 105.13 250.356 105.642 250.02C106.162 249.676 106.754 249.504 107.418 249.504C108.074 249.504 108.658 249.676 109.17 250.02C109.69 250.356 110.098 250.848 110.394 251.496C110.69 252.144 110.838 252.912 110.838 253.8C110.838 254.688 110.69 255.456 110.394 256.104C110.098 256.752 109.69 257.248 109.17 257.592C108.658 257.928 108.074 258.096 107.418 258.096ZM107.418 257.028C108.09 257.028 108.626 256.752 109.026 256.2C109.434 255.648 109.638 254.848 109.638 253.8C109.638 252.752 109.434 251.952 109.026 251.4C108.626 250.848 108.09 250.572 107.418 250.572C106.738 250.572 106.194 250.848 105.786 251.4C105.386 251.952 105.186 252.752 105.186 253.8C105.186 254.848 105.386 255.648 105.786 256.2C106.194 256.752 106.738 257.028 107.418 257.028ZM119.862 251.64V258H118.818V253.356L116.442 257.28H115.938L113.586 253.344V258H112.53V251.64H113.718L116.214 255.936L118.782 251.64H119.862ZM129.436 251.64V258H128.392V253.356L126.016 257.28H125.512L123.16 253.344V258H122.104V251.64H123.292L125.788 255.936L128.356 251.64H129.436Z" fill="#505050"/>
<path d="M151.628 48.6573C151.443 48.8591 151.46 49.1753 151.665 49.3635L155.011 52.43C155.217 52.6182 155.533 52.6072 155.718 52.4054C155.903 52.2036 155.886 51.8874 155.681 51.6992L152.707 48.9734L155.386 46.0501C155.571 45.8483 155.554 45.5321 155.349 45.3439C155.143 45.1558 154.827 45.1668 154.642 45.3686L151.628 48.6573ZM152.026 49.4974L153.046 49.4617L152.994 48.4631L151.974 48.4987L152.026 49.4974ZM155.087 49.3905L157.127 49.3192L157.075 48.3206L155.035 48.3918L155.087 49.3905ZM159.168 49.248L161.208 49.1767L161.156 48.1781L159.115 48.2493L159.168 49.248ZM163.248 49.1055L165.289 49.0342L165.237 48.0356L163.196 48.1068L163.248 49.1055ZM167.329 48.963L169.37 48.8917L169.317 47.8931L167.277 47.9643L167.329 48.963ZM171.41 48.8205L173.451 48.7492L173.398 47.7506L171.358 47.8218L171.41 48.8205ZM175.491 48.678L177.531 48.6067L177.479 47.6081L175.439 47.6793L175.491 48.678ZM179.572 48.5354L181.612 48.4642L181.56 47.4656L179.52 47.5368L179.572 48.5354ZM183.653 48.3929L185.693 48.3217L185.641 47.3231L183.6 47.3943L183.653 48.3929ZM187.734 48.2504L189.774 48.1792L189.722 47.1805L187.681 47.2518L187.734 48.2504ZM191.814 48.1079L193.855 48.0367L193.803 47.038L191.762 47.1093L191.814 48.1079ZM195.895 47.9654L197.936 47.8942L197.883 46.8955L195.843 46.9668L195.895 47.9654ZM199.976 47.8229L200.996 47.7873L200.944 46.7887L199.924 46.8243L199.976 47.8229Z" fill="#505050"/>
<path d="M322.342 42.6287C322.527 42.4269 322.51 42.1107 322.305 41.9226L318.959 38.856C318.754 38.6678 318.437 38.6788 318.252 38.8806C318.067 39.0825 318.084 39.3986 318.289 39.5868L321.263 42.3126L318.584 45.2359C318.399 45.4377 318.416 45.7539 318.621 45.9421C318.827 46.1303 319.143 46.1192 319.328 45.9174L322.342 42.6287ZM273.026 44.4974L274.046 44.4617L273.994 43.4631L272.974 43.4987L273.026 44.4974ZM276.087 44.3905L278.127 44.3192L278.075 43.3206L276.035 43.3918L276.087 44.3905ZM280.168 44.248L282.208 44.1767L282.156 43.1781L280.115 43.2493L280.168 44.248ZM284.248 44.1055L286.289 44.0342L286.237 43.0356L284.196 43.1068L284.248 44.1055ZM288.329 43.963L290.37 43.8917L290.317 42.8931L288.277 42.9643L288.329 43.963ZM292.41 43.8205L294.451 43.7492L294.398 42.7506L292.358 42.8218L292.41 43.8205ZM296.491 43.678L298.531 43.6067L298.479 42.6081L296.439 42.6793L296.491 43.678ZM300.572 43.5354L302.612 43.4642L302.56 42.4656L300.52 42.5368L300.572 43.5354ZM304.653 43.3929L306.693 43.3217L306.641 42.3231L304.6 42.3943L304.653 43.3929ZM308.734 43.2504L310.774 43.1792L310.722 42.1805L308.681 42.2518L308.734 43.2504ZM312.814 43.1079L314.855 43.0367L314.803 42.038L312.762 42.1093L312.814 43.1079ZM316.895 42.9654L318.936 42.8942L318.883 41.8955L316.843 41.9668L316.895 42.9654ZM320.976 42.8229L321.996 42.7873L321.944 41.7887L320.924 41.8243L320.976 42.8229Z" fill="#505050"/>
<path d="M219.505 44.7434C220.057 44.7242 220.554 44.8108 220.997 45.0035C221.447 45.1958 221.807 45.4834 222.075 45.8662C222.343 46.2411 222.49 46.6801 222.516 47.1834C222.544 47.7107 222.436 48.1787 222.193 48.5874C221.958 48.9958 221.619 49.3198 221.175 49.5594C220.738 49.7907 220.24 49.9161 219.681 49.9357C218.553 49.9751 217.663 49.642 217.009 48.9365C216.364 48.2307 216.006 47.2107 215.936 45.8765C215.887 44.9418 216.01 44.1412 216.303 43.4746C216.604 42.7998 217.042 42.2843 217.616 41.9281C218.198 41.5636 218.884 41.3676 219.676 41.3399C220.084 41.3257 220.47 41.3562 220.834 41.4315C221.198 41.4989 221.516 41.6078 221.788 41.7584L221.382 42.709C220.968 42.4593 220.425 42.3462 219.754 42.3697C218.882 42.4001 218.213 42.6956 217.746 43.2562C217.278 43.8087 217.071 44.6003 217.125 45.6309C217.132 45.7587 217.141 45.8585 217.153 45.9301C217.374 45.5622 217.687 45.2791 218.093 45.0809C218.507 44.8743 218.978 44.7619 219.505 44.7434ZM219.582 48.9667C220.134 48.9474 220.574 48.784 220.902 48.4764C221.23 48.1688 221.382 47.7673 221.356 47.272C221.33 46.7767 221.133 46.3914 220.767 46.116C220.407 45.8324 219.936 45.7008 219.352 45.7212C218.977 45.7343 218.645 45.818 218.356 45.9721C218.076 46.126 217.858 46.3296 217.703 46.5832C217.556 46.8364 217.491 47.1148 217.507 47.4184C217.522 47.714 217.612 47.983 217.777 48.2253C217.95 48.4594 218.188 48.6472 218.491 48.7887C218.803 48.9219 219.166 48.9812 219.582 48.9667ZM226.987 49.6806C226.323 49.7037 225.723 49.5566 225.185 49.2392C224.656 48.9136 224.226 48.4323 223.896 47.7956C223.567 47.1588 223.379 46.397 223.332 45.5102C223.286 44.6234 223.394 43.8513 223.656 43.1938C223.918 42.5364 224.296 42.031 224.79 41.6776C225.292 41.3159 225.874 41.1235 226.538 41.1003C227.194 41.0774 227.786 41.2288 228.316 41.5544C228.853 41.8718 229.287 42.3489 229.616 42.9857C229.946 43.6225 230.134 44.3843 230.18 45.2711C230.227 46.1579 230.119 46.93 229.857 47.5874C229.595 48.2449 229.213 48.7544 228.711 49.1161C228.217 49.4695 227.642 49.6577 226.987 49.6806ZM226.931 48.614C227.602 48.5906 228.124 48.2962 228.495 47.731C228.874 47.1655 229.036 46.3595 228.981 45.3129C228.926 44.2664 228.681 43.4746 228.244 42.9376C227.815 42.4003 227.265 42.1434 226.594 42.1668C225.914 42.1906 225.385 42.4852 225.006 43.0507C224.635 43.6159 224.477 44.4217 224.532 45.4683C224.586 46.5149 224.828 47.3068 225.257 47.8441C225.693 48.3811 226.251 48.6378 226.931 48.614ZM234.986 49.4012C234.322 49.4244 233.722 49.2773 233.184 48.9599C232.655 48.6342 232.225 48.153 231.895 47.5162C231.566 46.8794 231.378 46.1177 231.331 45.2309C231.285 44.3441 231.393 43.572 231.655 42.9145C231.917 42.2571 232.295 41.7516 232.789 41.3982C233.291 41.0365 233.873 40.8441 234.537 40.8209C235.193 40.7981 235.785 40.9494 236.315 41.2751C236.852 41.5925 237.286 42.0696 237.615 42.7064C237.945 43.3432 238.133 44.1049 238.179 44.9917C238.226 45.8785 238.118 46.6506 237.856 47.3081C237.594 47.9655 237.212 48.4751 236.71 48.8368C236.216 49.1902 235.641 49.3783 234.986 49.4012ZM234.93 48.3347C235.601 48.3112 236.123 48.0169 236.494 47.4517C236.873 46.8862 237.035 46.0802 236.98 45.0336C236.925 43.987 236.68 43.1953 236.243 42.6582C235.814 42.121 235.264 41.864 234.593 41.8875C233.913 41.9112 233.384 42.2058 233.005 42.7713C232.634 43.3365 232.476 44.1424 232.531 45.189C232.585 46.2356 232.827 47.0275 233.256 47.5648C233.692 48.1018 234.25 48.3584 234.93 48.3347ZM247.085 42.5197L247.417 48.8711L246.374 48.9075L246.131 44.2698L243.961 48.2714L243.458 48.289L240.902 44.4405L241.145 49.0901L240.089 49.127L239.757 42.7756L240.945 42.7342L243.663 46.9372L246.006 42.5574L247.085 42.5197ZM256.653 42.1856L256.985 48.5369L255.942 48.5734L255.699 43.9357L253.53 47.9373L253.026 47.9549L250.47 44.1063L250.713 48.756L249.658 48.7928L249.326 42.4415L250.513 42.4L253.232 46.6031L255.574 42.2233L256.653 42.1856Z" fill="#505050"/>
</svg>
