<svg width="25" height="25" viewBox="0 0 25 25" fill="none" xmlns="http://www.w3.org/2000/svg">
<path fill-rule="evenodd" clip-rule="evenodd" d="M12.5 2.27273C11.1569 2.27273 9.82702 2.53726 8.58619 3.05123C7.34536 3.5652 6.21792 4.31854 5.26823 5.26823C4.31854 6.21792 3.5652 7.34536 3.05123 8.58619C2.53726 9.82702 2.27273 11.1569 2.27273 12.5C2.27273 13.8431 2.53726 15.173 3.05123 16.4138C3.5652 17.6546 4.31854 18.7821 5.26823 19.7318C6.21792 20.6815 7.34536 21.4348 8.58619 21.9488C9.82702 22.4627 11.1569 22.7273 12.5 22.7273C15.2124 22.7273 17.8138 21.6498 19.7318 19.7318C21.6498 17.8138 22.7273 15.2124 22.7273 12.5C22.7273 9.78756 21.6498 7.18621 19.7318 5.26823C17.8138 3.35024 15.2124 2.27273 12.5 2.27273ZM0 12.5C0 5.59659 5.59659 0 12.5 0C19.4034 0 25 5.59659 25 12.5C25 19.4034 19.4034 25 12.5 25C5.59659 25 0 19.4034 0 12.5Z" fill="#FD1C1D"/>
<path fill-rule="evenodd" clip-rule="evenodd" d="M13.0833 12.4716V5H11V13.218L14.3333 18L16 16.6552L13.0833 12.4716Z" fill="#FD1C1D"/>
</svg>
